<?xml version="1.0" encoding="UTF-8" standalone="no"?>
<!-- Created with Inkscape (http://www.inkscape.org/) -->

<svg
   xmlns:osb="http://www.openswatchbook.org/uri/2009/osb"
   xmlns:dc="http://purl.org/dc/elements/1.1/"
   xmlns:cc="http://creativecommons.org/ns#"
   xmlns:rdf="http://www.w3.org/1999/02/22-rdf-syntax-ns#"
   xmlns:svg="http://www.w3.org/2000/svg"
   xmlns="http://www.w3.org/2000/svg"
   xmlns:sodipodi="http://sodipodi.sourceforge.net/DTD/sodipodi-0.dtd"
   xmlns:inkscape="http://www.inkscape.org/namespaces/inkscape"
   width="210"
   height="19"
   viewBox="0 0 210 19"
   version="1.1"
   id="svg8"
   inkscape:version="0.92.1 r15371"
   sodipodi:docname="1.svg">
  <defs
     id="defs2">
    <linearGradient
       id="linearGradient5933"
       osb:paint="solid">
      <stop
         style="stop-color:#000000;stop-opacity:1;"
         offset="0"
         id="stop5931" />
    </linearGradient>
  </defs>
  <sodipodi:namedview
     id="base"
     pagecolor="#ffffff"
     bordercolor="#666666"
     borderopacity="1.0"
     inkscape:pageopacity="0.0"
     inkscape:pageshadow="2"
     inkscape:zoom="0.71417785"
     inkscape:cx="300.87797"
     inkscape:cy="273.49516"
     inkscape:document-units="mm"
     inkscape:current-layer="text4487"
     showgrid="false"
     inkscape:window-width="1366"
     inkscape:window-height="705"
     inkscape:window-x="-8"
     inkscape:window-y="-8"
     inkscape:window-maximized="1"
     inkscape:pagecheckerboard="false" />
  <metadata
     id="metadata5">
    <rdf:RDF>
      <cc:Work
         rdf:about="">
        <dc:format>image/svg+xml</dc:format>
        <dc:type
           rdf:resource="http://purl.org/dc/dcmitype/StillImage" />
        <dc:title></dc:title>
      </cc:Work>
    </rdf:RDF>
  </metadata>
  <g
     inkscape:label="Layer 1"
     inkscape:groupmode="layer"
     id="layer1"
     transform="translate(0,-278)">
    <g
       aria-label="Kamila  Marcinkowska-Prasad"
       transform="scale(0.8623099,1.1596759)"
       style="font-style:normal;font-weight:normal;font-size:13.88572502px;line-height:125%;font-family:sans-serif;letter-spacing:0px;word-spacing:0px;fill:#ffffff;fill-opacity:1;stroke:#175c63;stroke-width:0.83002806;stroke-linecap:butt;stroke-linejoin:miter;stroke-miterlimit:4;stroke-dasharray:none;stroke-opacity:1"
       id="text4487">
      <path
         d="m 12.229792,250.5053 q 0,0.18984 -0.08136,0.36612 -0.08136,0.16951 -0.230525,0.29833 -0.149163,0.12204 -0.359347,0.19662 -0.210184,0.0746 -0.46783,0.0746 -0.413588,0 -1.2475452,-0.28477 -0.6983544,-0.24408 -1.4373895,-0.54919 -0.7322551,-0.31189 -1.5051909,-0.69836 -0.3661275,-0.18306 -0.9085387,-0.34578 -0.535631,-0.16273 -1.1729641,-0.24409 -0.027121,0.0542 -0.054241,0.19663 -0.02034,0.1356 -0.040681,0.3051 -0.01356,0.16951 -0.02034,0.34579 -0.00678,0.17628 -0.00678,0.31189 0,0.29832 0.047461,0.50851 0.047461,0.2034 0.1423829,0.41359 0.1288227,0.25086 0.1898439,0.4407 0.061021,0.18307 0.061021,0.29155 0,0.26443 -0.2712056,0.45427 -0.2712055,0.18984 -0.7932763,0.32545 -0.3457871,-0.20341 -0.5559714,-0.44749 -0.2101843,-0.24409 -0.3254467,-0.53563 -0.1152623,-0.29155 -0.1559432,-0.62378 -0.033901,-0.339 -0.033901,-0.71191 0,-0.22375 0.00678,-0.61699 0.01356,-0.40003 0.027121,-0.90176 0.020341,-0.50851 0.040681,-1.08482 0.02034,-0.57632 0.040681,-1.15263 0.02034,-0.57631 0.040681,-1.11872 0.020341,-0.54241 0.033901,-0.98312 0.02034,-0.44071 0.027121,-0.73226 0.01356,-0.29832 0.01356,-0.38646 0,-0.0339 -0.00678,-0.0882 -0.00678,-0.061 -0.02034,-0.12882 -0.00678,-0.0678 -0.01356,-0.1356 -0.00678,-0.0678 -0.00678,-0.10848 0,-0.27799 0.2576453,-0.53563 0.244085,-0.23053 0.5763118,-0.23053 0.2712056,0 0.535631,0.14238 0.3932481,0.19663 0.3932481,0.46783 0,0.0949 -0.027121,0.23053 -0.02034,0.1356 -0.033901,0.2373 -0.033901,0.24409 -0.054241,0.50173 -0.02034,0.25087 -0.033901,0.52885 -0.033901,0.69158 -0.061021,1.47807 -0.02034,0.77972 -0.047461,1.6747 0.047461,-0.0271 0.1220425,-0.0678 0.081362,-0.0407 0.1695035,-0.0881 0.088142,-0.0542 0.1762836,-0.10849 0.088142,-0.0542 0.1559432,-0.1017 0.5491913,-0.33223 1.0916024,-0.79328 0.5491913,-0.46782 1.0780421,-1.09838 0.3525673,-0.42037 0.6441133,-0.75259 0.2915459,-0.33901 0.5491912,-0.62378 0.2576453,-0.29154 0.4881701,-0.54919 0.2373048,-0.25764 0.4813898,-0.50851 0.047461,-0.0475 0.1220425,-0.11526 0.074582,-0.0746 0.1627234,-0.1356 0.094922,-0.0678 0.1966244,-0.10849 0.101702,-0.0475 0.210184,-0.0475 0.101702,0 0.237305,0.0949 0.135603,0.0949 0.250865,0.22374 0.122042,0.12882 0.203404,0.27121 0.08814,0.1356 0.08814,0.23052 0,0.11526 -0.108482,0.33223 l -0.115263,0.2373 q -0.02034,0.0339 -0.04068,0.0881 -0.01356,0.0542 -0.02712,0.0882 -0.02034,0.061 -0.04068,0.10848 -0.02034,0.0475 -0.06102,0.0949 -0.04068,0.0475 -0.108482,0.0949 -0.06102,0.0475 -0.169504,0.1017 -0.0678,0.0339 -0.149163,0.061 -0.07458,0.0271 -0.149163,0.061 -0.0678,0.0271 -0.122042,0.061 -0.047461,0.0271 -0.061022,0.061 -0.2305248,0.35935 -0.386468,0.56275 -0.1559432,0.19662 -0.2712055,0.34579 -0.1898439,0.2373 -0.4407091,0.50173 -0.2508651,0.25764 -0.5085104,0.49495 -0.2576453,0.2373 -0.535631,0.47461 -0.2712056,0.23052 -0.5288509,0.42037 -0.1084822,0.0814 -0.2237445,0.15594 -0.1084823,0.0678 -0.2373049,0.14916 -0.1220425,0.0814 -0.2644254,0.17629 -0.142383,0.0881 -0.3051063,0.2034 0.8000564,0.27799 1.6543539,0.65089 0.8542976,0.36613 1.7763965,0.70514 0.2983261,0.10848 0.4610493,0.1695 0.162724,0.061 0.271206,0.0949 0.108482,0.0271 0.189844,0.0339 0.08814,0.007 0.230524,0.007 0.0678,0 0.196624,-0.0136 0.128823,-0.0136 0.284766,-0.0339 0.155943,-0.0203 0.325447,-0.0475 0.176284,-0.0271 0.332227,-0.0475 0.115262,0.18985 0.176283,0.37969 0.0678,0.18306 0.0678,0.35935 z"
         style="font-style:normal;font-variant:normal;font-weight:bold;font-stretch:normal;font-family:'Segoe Script';-inkscape-font-specification:'Segoe Script Bold';fill:none;stroke:#175c63;stroke-width:0.83002806;stroke-miterlimit:4;stroke-dasharray:none;stroke-opacity:1"
         id="path6151" />
      <path
         d="m 17.375917,247.21015 q 0,-0.061 -0.02712,-0.14238 -0.02034,-0.0814 -0.06102,-0.14917 -0.0339,-0.0746 -0.08136,-0.12204 -0.04746,-0.0542 -0.08814,-0.0542 -0.447489,0 -0.820397,0.24408 -0.366127,0.23731 -0.766155,0.6509 -0.223745,0.22374 -0.48139,0.60343 -0.250865,0.37969 -0.46783,0.80684 -0.216964,0.42715 -0.359347,0.85429 -0.142383,0.42715 -0.142383,0.7526 0,0.0814 0.0068,0.16272 0.01356,0.0746 0.04068,0.13561 0.0339,0.061 0.08814,0.1017 0.05424,0.0407 0.142383,0.0407 0.257645,0 0.583091,-0.16272 0.325447,-0.16951 0.650894,-0.43393 0.332227,-0.27121 0.637333,-0.617 0.311886,-0.35256 0.522071,-0.71869 0.257645,-0.44749 0.440709,-0.93566 0.183063,-0.48817 0.183063,-1.01702 z m 6.163147,0.69835 q 0,0.0814 -0.0339,0.19663 -0.02712,0.10848 -0.07458,0.22374 -0.04746,0.10848 -0.108482,0.21697 -0.05424,0.1017 -0.108483,0.17628 -0.0339,0.0475 -0.108482,0.1356 -0.07458,0.0814 -0.169503,0.18985 -0.09492,0.1017 -0.216965,0.22374 -0.115262,0.12204 -0.237305,0.24409 -0.393248,0.36612 -0.800056,0.72547 -0.400028,0.35257 -0.840737,0.63055 -0.440709,0.27121 -0.922099,0.44071 -0.48139,0.16951 -1.023801,0.16951 -0.230525,0 -0.46783,-0.1017 -0.237305,-0.10171 -0.440709,-0.27799 -0.203404,-0.17628 -0.359347,-0.42037 -0.149163,-0.25086 -0.210185,-0.53563 -0.122042,0.2034 -0.318666,0.44071 -0.196624,0.23052 -0.433929,0.46105 -0.230525,0.23052 -0.48139,0.44071 -0.250865,0.2034 -0.46783,0.35256 -0.149163,0.10171 -0.366127,0.21019 -0.210184,0.10848 -0.447489,0.2034 -0.237305,0.0881 -0.48139,0.14917 -0.237305,0.0542 -0.440709,0.0542 -0.325447,0 -0.569532,-0.18307 -0.244085,-0.18984 -0.406808,-0.46105 -0.155944,-0.2712 -0.237305,-0.57631 -0.07458,-0.3051 -0.07458,-0.54919 0,-0.44749 0.128823,-0.90854 0.135603,-0.46783 0.339007,-0.90854 0.210184,-0.44071 0.461049,-0.84073 0.257646,-0.40003 0.501731,-0.71192 0.257645,-0.32544 0.616992,-0.64411 0.359348,-0.32545 0.752596,-0.57631 0.393248,-0.25765 0.772936,-0.41359 0.386468,-0.15594 0.684794,-0.15594 0.162723,0 0.332227,0.0136 0.176283,0.007 0.345787,0.0271 0.169503,0.0203 0.325446,0.061 0.155943,0.0407 0.277986,0.1017 0.08136,0.0542 0.176284,0.19662 0.101702,0.13561 0.183063,0.29833 0.08814,0.15594 0.149163,0.31189 0.06102,0.15594 0.06102,0.24408 0,0.18984 -0.06102,0.45427 -0.05424,0.25765 -0.128822,0.54241 -0.0678,0.28477 -0.128823,0.58309 -0.06102,0.29833 -0.06102,0.56953 0,0.18985 0.05424,0.38647 0.05424,0.19663 0.155943,0.35935 0.101702,0.15594 0.244085,0.25765 0.142383,0.1017 0.318667,0.1017 0.400028,0 0.793276,-0.14917 0.393248,-0.14916 0.786496,-0.4068 0.393248,-0.26443 0.786496,-0.617 0.393248,-0.35934 0.793277,-0.77293 0.01356,0 0.108482,-0.1017 0.09492,-0.10171 0.223744,-0.22375 0.135603,-0.12204 0.277986,-0.22374 0.149163,-0.10171 0.257645,-0.10171 0.196624,0 0.257646,0.11527 0.06102,0.11526 0.06102,0.35256 z"
         style="font-style:normal;font-variant:normal;font-weight:bold;font-stretch:normal;font-family:'Segoe Script';-inkscape-font-specification:'Segoe Script Bold';fill:none;stroke:#175c63;stroke-width:0.83002806;stroke-miterlimit:4;stroke-dasharray:none;stroke-opacity:1"
         id="path6153" />
      <path
         d="m 37.587512,247.76612 q 0,0.061 -0.0339,0.16272 -0.02712,0.0949 -0.07458,0.21019 -0.04746,0.10848 -0.115262,0.22374 -0.06102,0.11527 -0.122043,0.21697 -0.108482,0.1695 -0.291546,0.39325 -0.183064,0.22374 -0.406808,0.46783 -0.223745,0.24408 -0.47461,0.48817 -0.250865,0.24408 -0.49495,0.45426 -0.196624,0.16273 -0.46105,0.35935 -0.264425,0.19663 -0.562751,0.36613 -0.298326,0.1695 -0.610213,0.28477 -0.305106,0.10848 -0.589872,0.10848 -0.264425,0 -0.51529,-0.1017 -0.244085,-0.10849 -0.46105,-0.40003 -0.210184,-0.29155 -0.372908,-0.81362 -0.162723,-0.52207 -0.257645,-1.35603 -0.0068,-0.0814 -0.02034,-0.25086 -0.0068,-0.17629 -0.02034,-0.34579 -0.0068,-0.17628 -0.02034,-0.30511 -0.01356,-0.12882 -0.02712,-0.12882 -0.05424,0 -0.183063,0.16273 -0.122043,0.16272 -0.298327,0.43392 -0.169503,0.26443 -0.372907,0.617 -0.203404,0.34578 -0.420369,0.71869 -0.271205,0.47461 -0.51529,0.8543 -0.237305,0.37291 -0.45427,0.63055 -0.210184,0.25087 -0.413588,0.38647 -0.196624,0.1356 -0.400028,0.1356 -0.311887,0 -0.508511,-0.11526 -0.196624,-0.12204 -0.311886,-0.36613 -0.115263,-0.25086 -0.162724,-0.63733 -0.04746,-0.39325 -0.06102,-0.92888 -0.02034,-0.89498 -0.06102,-1.39671 -0.0339,-0.50173 -0.101702,-0.50173 -0.08136,0 -0.271206,0.21019 -0.189844,0.21018 -0.454269,0.57631 -0.257645,0.36613 -0.569532,0.86108 -0.305106,0.49495 -0.630553,1.06448 -0.08136,0.14916 -0.196624,0.34578 -0.115262,0.19663 -0.237305,0.40003 -0.122042,0.20341 -0.244085,0.39325 -0.115262,0.18984 -0.210184,0.32545 -0.122042,0.17628 -0.298326,0.2712 -0.176284,0.0881 -0.372908,0.0881 -0.277985,0 -0.474609,-0.11526 -0.196624,-0.12204 -0.318667,-0.32544 -0.122042,-0.20341 -0.183064,-0.48139 -0.05424,-0.27799 -0.05424,-0.58988 0,-0.27798 0.01356,-0.50173 0.01356,-0.22374 0.04068,-0.44749 0.02712,-0.23052 0.06102,-0.48139 0.04068,-0.25086 0.08814,-0.57631 0.04068,-0.28476 0.06102,-0.59665 0.02034,-0.31867 0.04068,-0.61699 0.02034,-0.30511 0.04746,-0.56275 0.02712,-0.25765 0.07458,-0.42715 0.0339,-0.11527 0.08814,-0.24409 0.05424,-0.1356 0.155943,-0.24408 0.101702,-0.11527 0.257645,-0.18985 0.155943,-0.0814 0.386468,-0.0814 0.210184,0 0.339007,0.0814 0.128823,0.0746 0.196624,0.21019 0.0678,0.12882 0.08814,0.3051 0.02712,0.16951 0.02712,0.35935 0,0.16272 -0.04746,0.44071 -0.04068,0.27799 -0.108483,0.61699 -0.06102,0.33223 -0.142383,0.69836 -0.08136,0.35934 -0.155943,0.69157 -0.0678,0.33223 -0.122042,0.60343 -0.05424,0.26443 -0.07458,0.41359 0.01356,-0.0271 0.07458,-0.1356 0.0678,-0.10848 0.155943,-0.26443 0.09492,-0.15594 0.196624,-0.33222 0.101702,-0.17629 0.189844,-0.33223 0.09492,-0.15594 0.162723,-0.27121 0.0678,-0.11526 0.08136,-0.14238 0.122042,-0.2034 0.284766,-0.45427 0.162723,-0.25764 0.339007,-0.51529 0.176283,-0.26442 0.345787,-0.50173 0.176283,-0.2373 0.318666,-0.40003 0.305107,-0.34578 0.644113,-0.52207 0.345788,-0.17628 0.732256,-0.17628 0.413588,0 0.691574,0.28477 0.277985,0.28476 0.372907,0.74581 0.0339,0.1695 0.05424,0.42715 0.02034,0.25764 0.02712,0.54241 0.01356,0.27799 0.02034,0.56275 0.0068,0.28477 0.0068,0.50851 0.0068,0.22375 0.01356,0.36613 0.0068,0.14238 0.02712,0.14238 0.06102,0 0.176284,-0.1695 0.115262,-0.1695 0.257645,-0.42715 0.142383,-0.25764 0.298326,-0.55597 0.155944,-0.29833 0.298327,-0.54919 0.237304,-0.40003 0.50173,-0.76616 0.264425,-0.37291 0.522071,-0.65089 0.264425,-0.28477 0.50173,-0.44749 0.237305,-0.1695 0.420369,-0.1695 0.128822,0 0.264425,0.0271 0.135603,0.0271 0.257645,0.0814 0.128823,0.0475 0.230525,0.12204 0.101702,0.0678 0.155943,0.15594 0.115263,0.18307 0.169504,0.40003 0.05424,0.21697 0.07458,0.48139 0.02712,0.26443 0.0339,0.58309 0.01356,0.31867 0.05424,0.70514 0.07458,0.70513 0.216964,1.10516 0.142383,0.40003 0.406809,0.40003 0.115262,0 0.298326,-0.0814 0.189844,-0.0881 0.406808,-0.21697 0.223745,-0.1356 0.45427,-0.29832 0.237304,-0.16273 0.440709,-0.32545 0.223744,-0.17628 0.427148,-0.35935 0.203405,-0.18984 0.400029,-0.38646 0.203404,-0.19663 0.406808,-0.40681 0.210184,-0.21697 0.440709,-0.45427 0.142383,-0.14239 0.325447,-0.14239 0.216964,0 0.216964,0.31189 z"
         style="font-style:normal;font-variant:normal;font-weight:bold;font-stretch:normal;font-family:'Segoe Script';-inkscape-font-specification:'Segoe Script Bold';fill:none;stroke:#175c63;stroke-width:0.83002806;stroke-miterlimit:4;stroke-dasharray:none;stroke-opacity:1"
         id="path6155" />
      <path
         d="m 39.831737,242.53863 q 0,0.22375 -0.0678,0.42715 -0.0678,0.19663 -0.196624,0.37291 -0.257645,0.35935 -0.793276,0.35935 -0.189844,0 -0.386468,-0.0339 -0.196624,-0.0339 -0.352567,-0.0949 -0.155943,-0.061 -0.257646,-0.15594 -0.101702,-0.0949 -0.101702,-0.21696 0,-0.21019 0.108483,-0.44071 0.108482,-0.23731 0.277985,-0.43393 0.176284,-0.2034 0.379688,-0.33223 0.210184,-0.1356 0.400028,-0.1356 0.237305,0 0.420369,0.0339 0.183064,0.0271 0.305106,0.1017 0.128823,0.0746 0.196624,0.21019 0.0678,0.1356 0.0678,0.339 z m 4.217246,5.58006 q 0,0.15594 -0.122042,0.40003 -0.115263,0.2373 -0.325447,0.53563 -0.203404,0.29154 -0.48817,0.63055 -0.284766,0.33223 -0.616993,0.68479 -0.359347,0.38647 -0.779716,0.75938 -0.420368,0.37291 -0.894978,0.71869 -0.46783,0.33901 -0.922099,0.52886 -0.454269,0.18306 -0.861078,0.18306 -0.474609,0 -0.827177,-0.15594 -0.345787,-0.16273 -0.596652,-0.43393 -0.244085,-0.27799 -0.400028,-0.63056 -0.155943,-0.35934 -0.250865,-0.75259 -0.08814,-0.40003 -0.122043,-0.80684 -0.0339,-0.40681 -0.0339,-0.77293 0,-0.14239 0.02034,-0.42715 0.02034,-0.28477 0.05424,-0.59665 0.04068,-0.31867 0.08136,-0.61022 0.04746,-0.29832 0.09492,-0.46783 0.101702,-0.33222 0.467829,-0.63055 0.352568,-0.28477 0.786496,-0.28477 0.440709,0 0.440709,0.52886 0,0.25086 -0.04746,0.53563 -0.04068,0.27798 -0.09492,0.54919 -0.08814,0.49495 -0.122043,0.89498 -0.0339,0.39324 -0.0339,0.69835 0,0.34579 0.04068,0.67123 0.04068,0.32545 0.115263,0.5831 0.08136,0.25086 0.196624,0.4068 0.122042,0.15595 0.284765,0.15595 0.203405,0 0.420369,-0.0339 0.216965,-0.0407 0.522071,-0.20341 0.583092,-0.31866 1.240765,-0.86107 0.230525,-0.18985 0.522071,-0.44749 0.298326,-0.26443 0.589872,-0.53564 0.291546,-0.27798 0.549191,-0.54241 0.257646,-0.26442 0.406809,-0.45427 0.02034,-0.0339 0.05424,-0.0814 0.04068,-0.0542 0.08814,-0.10848 0.04746,-0.0542 0.101702,-0.0881 0.06102,-0.0407 0.115262,-0.0407 0.108482,0 0.155943,0.0339 0.05424,0.0271 0.115263,0.18306 0.07458,0.16951 0.07458,0.28477 z"
         style="font-style:normal;font-variant:normal;font-weight:bold;font-stretch:normal;font-family:'Segoe Script';-inkscape-font-specification:'Segoe Script Bold';fill:none;stroke:#175c63;stroke-width:0.83002806;stroke-miterlimit:4;stroke-dasharray:none;stroke-opacity:1"
         id="path6157" />
      <path
         d="m 49.995168,248.32209 q 0,0.15595 -0.08136,0.39325 -0.07458,0.23053 -0.257645,0.54241 -0.183064,0.30511 -0.48817,0.69158 -0.305107,0.38646 -0.759376,0.84751 -0.250865,0.25087 -0.569532,0.50173 -0.311886,0.25087 -0.664453,0.44749 -0.352568,0.18985 -0.732255,0.31189 -0.372908,0.12204 -0.745816,0.12204 -0.50173,0 -0.942439,-0.17628 -0.433929,-0.17629 -0.759376,-0.53563 -0.325446,-0.36613 -0.51529,-0.91532 -0.183064,-0.54919 -0.183064,-1.28823 0,-0.48139 0.04746,-0.99668 0.04746,-0.52207 0.115262,-1.05092 0.07458,-0.52885 0.162724,-1.04414 0.09492,-0.52207 0.183063,-0.99668 0.06102,-0.32545 0.101703,-0.57631 0.04068,-0.25087 0.07458,-0.50173 0.04068,-0.25087 0.08814,-0.53564 0.04746,-0.29154 0.115262,-0.68479 0.0339,-0.18984 0.115263,-0.35935 0.08136,-0.17628 0.203404,-0.3051 0.128822,-0.13561 0.298326,-0.21019 0.169503,-0.0814 0.372908,-0.0814 0.50173,0 0.732255,0.46783 l -0.07458,0.38647 q -0.06102,0.32545 -0.162723,0.76615 -0.09492,0.43393 -0.210185,0.94922 -0.108482,0.51529 -0.223744,1.08483 -0.108482,0.56275 -0.203404,1.14584 -0.08814,0.58309 -0.149163,1.1594 -0.05424,0.57632 -0.05424,1.11195 0,0.4068 0.05424,0.73903 0.06102,0.33223 0.189843,0.56953 0.128823,0.23053 0.332227,0.35935 0.203404,0.12882 0.48817,0.12882 0.284766,0 0.589872,-0.11526 0.305107,-0.12204 0.610213,-0.31189 0.311886,-0.18984 0.603432,-0.43392 0.298326,-0.24409 0.555972,-0.48817 0.257645,-0.25087 0.461049,-0.48139 0.203404,-0.23731 0.332227,-0.40681 0.06102,-0.0814 0.128823,-0.16951 0.07458,-0.0949 0.162723,-0.17628 0.09492,-0.0814 0.196624,-0.1356 0.108482,-0.0542 0.230525,-0.0542 0.09492,0 0.162723,0.0814 0.0678,0.0746 0.0678,0.22374 z"
         style="font-style:normal;font-variant:normal;font-weight:bold;font-stretch:normal;font-family:'Segoe Script';-inkscape-font-specification:'Segoe Script Bold';fill:none;stroke:#175c63;stroke-width:0.83002806;stroke-miterlimit:4;stroke-dasharray:none;stroke-opacity:1"
         id="path6159" />
      <path
         d="m 53.256413,247.21015 q 0,-0.061 -0.02712,-0.14238 -0.02034,-0.0814 -0.06102,-0.14917 -0.0339,-0.0746 -0.08136,-0.12204 -0.04746,-0.0542 -0.08814,-0.0542 -0.447489,0 -0.820397,0.24408 -0.366127,0.23731 -0.766155,0.6509 -0.223745,0.22374 -0.48139,0.60343 -0.250865,0.37969 -0.46783,0.80684 -0.216964,0.42715 -0.359347,0.85429 -0.142383,0.42715 -0.142383,0.7526 0,0.0814 0.0068,0.16272 0.01356,0.0746 0.04068,0.13561 0.0339,0.061 0.08814,0.1017 0.05424,0.0407 0.142383,0.0407 0.257645,0 0.583092,-0.16272 0.325446,-0.16951 0.650893,-0.43393 0.332227,-0.27121 0.637333,-0.617 0.311886,-0.35256 0.522071,-0.71869 0.257645,-0.44749 0.440709,-0.93566 0.183064,-0.48817 0.183064,-1.01702 z m 6.163146,0.69835 q 0,0.0814 -0.0339,0.19663 -0.02712,0.10848 -0.07458,0.22374 -0.04746,0.10848 -0.108482,0.21697 -0.05424,0.1017 -0.108483,0.17628 -0.0339,0.0475 -0.108482,0.1356 -0.07458,0.0814 -0.169503,0.18985 -0.09492,0.1017 -0.216965,0.22374 -0.115262,0.12204 -0.237305,0.24409 -0.393248,0.36612 -0.800056,0.72547 -0.400028,0.35257 -0.840737,0.63055 -0.440709,0.27121 -0.922099,0.44071 -0.48139,0.16951 -1.023801,0.16951 -0.230525,0 -0.46783,-0.1017 -0.237305,-0.10171 -0.440709,-0.27799 -0.203404,-0.17628 -0.359347,-0.42037 -0.149163,-0.25086 -0.210185,-0.53563 -0.122042,0.2034 -0.318666,0.44071 -0.196624,0.23052 -0.433929,0.46105 -0.230525,0.23052 -0.48139,0.44071 -0.250865,0.2034 -0.46783,0.35256 -0.149163,0.10171 -0.366127,0.21019 -0.210184,0.10848 -0.447489,0.2034 -0.237305,0.0881 -0.48139,0.14917 -0.237305,0.0542 -0.440709,0.0542 -0.325447,0 -0.569532,-0.18307 -0.244085,-0.18984 -0.406808,-0.46105 -0.155943,-0.2712 -0.237305,-0.57631 -0.07458,-0.3051 -0.07458,-0.54919 0,-0.44749 0.128823,-0.90854 0.135603,-0.46783 0.339007,-0.90854 0.210184,-0.44071 0.461049,-0.84073 0.257646,-0.40003 0.501731,-0.71192 0.257645,-0.32544 0.616992,-0.64411 0.359348,-0.32545 0.752596,-0.57631 0.393248,-0.25765 0.772936,-0.41359 0.386468,-0.15594 0.684794,-0.15594 0.162723,0 0.332227,0.0136 0.176283,0.007 0.345787,0.0271 0.169503,0.0203 0.325446,0.061 0.155944,0.0407 0.277986,0.1017 0.08136,0.0542 0.176284,0.19662 0.101702,0.13561 0.183063,0.29833 0.08814,0.15594 0.149163,0.31189 0.06102,0.15594 0.06102,0.24408 0,0.18984 -0.06102,0.45427 -0.05424,0.25765 -0.128822,0.54241 -0.0678,0.28477 -0.128823,0.58309 -0.06102,0.29833 -0.06102,0.56953 0,0.18985 0.05424,0.38647 0.05424,0.19663 0.155943,0.35935 0.101702,0.15594 0.244085,0.25765 0.142383,0.1017 0.318667,0.1017 0.400028,0 0.793276,-0.14917 0.393248,-0.14916 0.786496,-0.4068 0.393248,-0.26443 0.786496,-0.617 0.393248,-0.35934 0.793277,-0.77293 0.01356,0 0.108482,-0.1017 0.09492,-0.10171 0.223744,-0.22375 0.135603,-0.12204 0.277986,-0.22374 0.149163,-0.10171 0.257645,-0.10171 0.196625,0 0.257646,0.11527 0.06102,0.11526 0.06102,0.35256 z"
         style="font-style:normal;font-variant:normal;font-weight:bold;font-stretch:normal;font-family:'Segoe Script';-inkscape-font-specification:'Segoe Script Bold';fill:none;stroke:#175c63;stroke-width:0.83002806;stroke-miterlimit:4;stroke-dasharray:none;stroke-opacity:1"
         id="path6161" />
      <path
         d="m 81.332971,242.39625 q 0,0.1017 -0.02712,0.15594 -0.02712,0.0475 -0.0678,0.10849 -0.04068,0.061 -0.09492,0.15594 -0.04746,0.0949 -0.08814,0.27799 -0.04068,0.18984 -0.08136,0.33222 -0.0339,0.14238 -0.06102,0.27121 -0.02712,0.12882 -0.04746,0.26442 -0.01356,0.12883 -0.01356,0.30511 0,0.30511 -0.01356,0.60343 -0.01356,0.29833 -0.04068,0.62377 -0.02712,0.31867 -0.0678,0.67124 -0.0339,0.34579 -0.08136,0.75259 -0.0678,0.57632 -0.135603,1.22043 -0.0678,0.64411 -0.0678,1.32891 0,0.18306 0,0.42714 0,0.24409 0.0068,0.52208 0.01356,0.27798 0.02712,0.56953 0.02034,0.28476 0.05424,0.55597 0.0339,0.0339 0.05424,0.0475 0.02712,0.007 0.07458,0.0407 0.244085,0.15594 0.352567,0.27121 0.108483,0.11526 0.108483,0.31188 0,0.14239 -0.08814,0.29833 -0.08814,0.16272 -0.237305,0.29832 -0.142383,0.13561 -0.332227,0.22375 -0.183064,0.0881 -0.379688,0.0881 -0.393248,0 -0.650893,-0.24408 -0.257645,-0.24409 -0.406808,-0.62378 -0.142383,-0.38646 -0.203405,-0.85429 -0.05424,-0.47461 -0.05424,-0.93566 v -0.23731 q 0,-0.18984 0.0339,-0.57631 0.04068,-0.38647 0.09492,-0.88142 0.06102,-0.49495 0.128823,-1.05092 0.07458,-0.55597 0.149163,-1.08482 0.08136,-0.53563 0.149163,-0.99668 0.07458,-0.46105 0.128822,-0.75938 -0.08136,0.1017 -0.230524,0.29833 -0.142383,0.18984 -0.325447,0.42715 -0.176284,0.2373 -0.379688,0.50173 -0.196624,0.26442 -0.386468,0.52207 -0.183063,0.25086 -0.352567,0.47461 -0.162723,0.22374 -0.277986,0.37969 -0.257645,0.35256 -0.49495,0.69835 -0.237305,0.34579 -0.49495,0.71191 -0.02034,0.0203 -0.0678,0.0882 -0.04068,0.0678 -0.09492,0.15594 -0.05424,0.0814 -0.108483,0.16272 -0.05424,0.0814 -0.09492,0.12204 -0.474609,0.63734 -1.044141,0.80006 -0.366127,-0.11526 -0.589872,-0.25086 -0.216965,-0.13561 -0.359347,-0.29155 -0.142383,-0.16272 -0.244085,-0.35257 -0.09492,-0.18984 -0.223745,-0.40003 -0.135603,-0.23052 -0.244085,-0.42036 -0.108482,-0.18985 -0.189844,-0.33901 -0.176284,-0.31867 -0.332227,-0.67123 -0.155943,-0.35257 -0.291546,-0.7187 -0.09492,-0.30511 -0.169503,-0.52207 -0.0678,-0.21696 -0.128823,-0.40681 -0.06102,-0.18984 -0.122042,-0.38647 -0.06102,-0.19662 -0.135603,-0.46105 -0.01356,0.0475 -0.05424,0.23053 -0.04068,0.18306 -0.101702,0.45427 -0.06102,0.2712 -0.135603,0.60343 -0.07458,0.33223 -0.149163,0.67801 -0.07458,0.34579 -0.149163,0.67802 -0.0678,0.32545 -0.128823,0.58987 -0.05424,0.26443 -0.09492,0.44071 -0.04068,0.1695 -0.04746,0.2034 -0.135603,0.54241 -0.135603,1.03058 0,0.10171 -0.0068,0.31867 -0.0068,0.21019 -0.01356,0.45427 0,0.23731 -0.0068,0.46105 -0.0068,0.22374 -0.0068,0.34579 0,0.1017 -0.06102,0.25086 -0.06102,0.14917 -0.169503,0.28477 -0.108482,0.1356 -0.250865,0.2373 -0.142383,0.0949 -0.298326,0.0949 -0.223745,0 -0.386468,-0.0204 -0.162724,-0.0203 -0.284766,-0.0814 -0.115262,-0.061 -0.203404,-0.17628 -0.08814,-0.11526 -0.162724,-0.29833 -0.02712,-0.061 -0.04068,-0.12882 -0.01356,-0.0746 -0.02712,-0.18306 -0.0068,-0.10849 -0.01356,-0.26443 0,-0.16272 0,-0.40681 0,-0.0746 0.04746,-0.29832 0.05424,-0.23053 0.128822,-0.54919 0.08136,-0.31867 0.176284,-0.6848 0.09492,-0.37291 0.189844,-0.72547 0.101702,-0.35935 0.183064,-0.67124 0.08814,-0.31866 0.142383,-0.51529 0.09492,-0.339 0.196624,-0.70513 0.101702,-0.36613 0.196624,-0.73904 0.101702,-0.3729 0.196624,-0.73903 0.101702,-0.37291 0.183063,-0.70514 0.04068,-0.339 0.08136,-0.49495 0.04068,-0.18306 0.108482,-0.38646 0.0678,-0.21019 0.162724,-0.37969 0.101702,-0.17629 0.237305,-0.29155 0.142382,-0.11526 0.332226,-0.11526 0.549192,0 0.874638,0.12204 0.332227,0.12204 0.528851,0.37969 0.203404,0.25086 0.318667,0.65089 0.115262,0.40003 0.237305,0.96278 0.0339,0.15595 0.08136,0.27799 0.04746,0.11526 0.101702,0.25764 0.230525,0.70514 0.555972,1.40349 0.332227,0.69158 0.766155,1.36959 0.176284,-0.14238 0.318667,-0.35935 0.149163,-0.22374 0.325447,-0.54241 0.155943,-0.27798 0.311886,-0.52207 0.162723,-0.25086 0.366128,-0.47461 0.07458,-0.0814 0.237304,-0.27798 0.162724,-0.20341 0.372908,-0.46783 0.216965,-0.27121 0.454269,-0.56954 0.237305,-0.29832 0.44749,-0.56275 0.210184,-0.2712 0.372907,-0.47461 0.162724,-0.21018 0.230525,-0.29832 0.07458,-0.0881 0.115262,-0.13561 0.04068,-0.0542 0.101702,-0.12204 0.07458,-0.10848 0.244085,-0.33223 0.169504,-0.22374 0.352568,-0.4746 0.189844,-0.25087 0.359347,-0.47461 0.176284,-0.23053 0.257645,-0.34579 0.09492,-0.14238 0.359348,-0.14238 0.142383,0 0.305106,0.0881 0.162723,0.0814 0.298326,0.2034 0.142383,0.12204 0.230525,0.25765 0.09492,0.1356 0.09492,0.2373 z"
         style="font-style:normal;font-variant:normal;font-weight:bold;font-stretch:normal;font-family:'Segoe Script';-inkscape-font-specification:'Segoe Script Bold';fill:none;stroke:#175c63;stroke-width:0.83002806;stroke-miterlimit:4;stroke-dasharray:none;stroke-opacity:1"
         id="path6163" />
      <path
         d="m 87.455437,247.21015 q 0,-0.061 -0.02712,-0.14238 -0.02034,-0.0814 -0.06102,-0.14917 -0.0339,-0.0746 -0.08136,-0.12204 -0.04746,-0.0542 -0.08814,-0.0542 -0.447489,0 -0.820396,0.24408 -0.366128,0.23731 -0.766156,0.6509 -0.223745,0.22374 -0.48139,0.60343 -0.250865,0.37969 -0.46783,0.80684 -0.216964,0.42715 -0.359347,0.85429 -0.142383,0.42715 -0.142383,0.7526 0,0.0814 0.0068,0.16272 0.01356,0.0746 0.04068,0.13561 0.0339,0.061 0.08814,0.1017 0.05424,0.0407 0.142383,0.0407 0.257645,0 0.583092,-0.16272 0.325446,-0.16951 0.650893,-0.43393 0.332227,-0.27121 0.637333,-0.617 0.311887,-0.35256 0.522071,-0.71869 0.257645,-0.44749 0.440709,-0.93566 0.183064,-0.48817 0.183064,-1.01702 z m 6.163146,0.69835 q 0,0.0814 -0.0339,0.19663 -0.02712,0.10848 -0.07458,0.22374 -0.04746,0.10848 -0.108482,0.21697 -0.05424,0.1017 -0.108482,0.17628 -0.0339,0.0475 -0.108483,0.1356 -0.07458,0.0814 -0.169503,0.18985 -0.09492,0.1017 -0.216965,0.22374 -0.115262,0.12204 -0.237304,0.24409 -0.393249,0.36612 -0.800057,0.72547 -0.400028,0.35257 -0.840737,0.63055 -0.440709,0.27121 -0.922099,0.44071 -0.48139,0.16951 -1.023801,0.16951 -0.230525,0 -0.46783,-0.1017 -0.237305,-0.10171 -0.440709,-0.27799 -0.203404,-0.17628 -0.359347,-0.42037 -0.149163,-0.25086 -0.210184,-0.53563 -0.122043,0.2034 -0.318667,0.44071 -0.196624,0.23052 -0.433929,0.46105 -0.230525,0.23052 -0.48139,0.44071 -0.250865,0.2034 -0.467829,0.35256 -0.149163,0.10171 -0.366128,0.21019 -0.210184,0.10848 -0.447489,0.2034 -0.237305,0.0881 -0.48139,0.14917 -0.237305,0.0542 -0.440709,0.0542 -0.325447,0 -0.569532,-0.18307 -0.244085,-0.18984 -0.406808,-0.46105 -0.155943,-0.2712 -0.237305,-0.57631 -0.07458,-0.3051 -0.07458,-0.54919 0,-0.44749 0.128822,-0.90854 0.135603,-0.46783 0.339007,-0.90854 0.210184,-0.44071 0.46105,-0.84073 0.257645,-0.40003 0.50173,-0.71192 0.257645,-0.32544 0.616993,-0.64411 0.359347,-0.32545 0.752595,-0.57631 0.393248,-0.25765 0.772936,-0.41359 0.386468,-0.15594 0.684794,-0.15594 0.162723,0 0.332227,0.0136 0.176283,0.007 0.345787,0.0271 0.169503,0.0203 0.325447,0.061 0.155943,0.0407 0.277985,0.1017 0.08136,0.0542 0.176284,0.19662 0.101702,0.13561 0.183064,0.29833 0.08814,0.15594 0.149163,0.31189 0.06102,0.15594 0.06102,0.24408 0,0.18984 -0.06102,0.45427 -0.05424,0.25765 -0.128823,0.54241 -0.0678,0.28477 -0.128823,0.58309 -0.06102,0.29833 -0.06102,0.56953 0,0.18985 0.05424,0.38647 0.05424,0.19663 0.155943,0.35935 0.101703,0.15594 0.244085,0.25765 0.142383,0.1017 0.318667,0.1017 0.400028,0 0.793276,-0.14917 0.393248,-0.14916 0.786496,-0.4068 0.393249,-0.26443 0.786497,-0.617 0.393248,-0.35934 0.793276,-0.77293 0.01356,0 0.108482,-0.1017 0.09492,-0.10171 0.223745,-0.22375 0.135602,-0.12204 0.277985,-0.22374 0.149163,-0.10171 0.257646,-0.10171 0.196624,0 0.257645,0.11527 0.06102,0.11526 0.06102,0.35256 z"
         style="font-style:normal;font-variant:normal;font-weight:bold;font-stretch:normal;font-family:'Segoe Script';-inkscape-font-specification:'Segoe Script Bold';fill:none;stroke:#175c63;stroke-width:0.83002806;stroke-miterlimit:4;stroke-dasharray:none;stroke-opacity:1"
         id="path6165" />
      <path
         d="m 99.252875,247.04065 q 0,0.061 -0.02712,0.16272 -0.02712,0.1017 -0.08136,0.2034 -0.05424,0.10171 -0.142383,0.17629 -0.08136,0.0746 -0.203404,0.0814 -0.02712,0 -0.115263,0 -0.08814,-0.007 -0.189844,-0.0136 -0.101702,-0.007 -0.189844,-0.007 -0.08814,-0.007 -0.128822,-0.007 -1.132283,0.061 -1.95946,0.81362 -0.189844,0.1695 -0.393249,0.40002 -0.196624,0.23053 -0.393248,0.50851 -0.189844,0.27121 -0.366127,0.5831 -0.176284,0.31188 -0.318667,0.65089 -0.115262,0.27798 -0.223744,0.57631 -0.108482,0.29155 -0.189844,0.61699 -0.04746,0.17629 -0.07458,0.31189 -0.02034,0.12882 -0.07458,0.30511 -0.0339,0.10848 -0.115263,0.18306 -0.08136,0.0814 -0.189843,0.12882 -0.108483,0.0542 -0.230525,0.0814 -0.115263,0.0271 -0.230525,0.0339 -0.433929,0 -0.596652,-0.39324 -0.162724,-0.39325 -0.162724,-1.17297 0,-0.17628 0,-0.33222 0.0068,-0.15595 0.01356,-0.31189 0.01356,-0.16272 0.02712,-0.33223 0.01356,-0.17628 0.0339,-0.39325 0.02712,-0.31866 0.07458,-0.75259 0.04746,-0.44071 0.101702,-0.8882 0.05424,-0.45427 0.115262,-0.87464 0.0678,-0.42037 0.135603,-0.71191 0.08136,-0.35935 0.271205,-0.56275 0.196624,-0.20341 0.569532,-0.20341 0.108482,0 0.216964,0.061 0.115263,0.0542 0.203405,0.13561 0.08814,0.0814 0.149163,0.17628 0.06102,0.0949 0.0678,0.1695 l 0.0068,0.12205 q 0,0.18984 -0.0339,0.44749 -0.0339,0.25764 -0.09492,0.54919 -0.05424,0.28476 -0.122043,0.58309 -0.06102,0.29154 -0.128823,0.56275 -0.06102,0.26443 -0.115262,0.49495 -0.04746,0.22375 -0.07458,0.37291 0.237304,-0.50173 0.50851,-0.96278 0.271206,-0.46783 0.583092,-0.86108 0.311886,-0.40003 0.671234,-0.71191 0.359347,-0.31189 0.772936,-0.50173 0.325446,-0.14917 0.596652,-0.22375 0.271205,-0.0814 0.48817,-0.0814 0.257645,0 0.528851,0.0542 0.277985,0.0542 0.50173,0.16272 0.230525,0.10171 0.379688,0.25087 0.149163,0.14916 0.149163,0.33901 z"
         style="font-style:normal;font-variant:normal;font-weight:bold;font-stretch:normal;font-family:'Segoe Script';-inkscape-font-specification:'Segoe Script Bold';fill:none;stroke:#175c63;stroke-width:0.83002806;stroke-miterlimit:4;stroke-dasharray:none;stroke-opacity:1"
         id="path6167" />
      <path
         d="m 108.26368,247.78646 q 0,0.1356 -0.0407,0.23731 -0.0339,0.0949 -0.11526,0.19662 -0.0746,0.0949 -0.19662,0.21018 -0.12204,0.11527 -0.29833,0.29155 l -0.59665,0.59665 q -0.18984,0.18985 -0.33223,0.31867 -0.14238,0.12882 -0.27798,0.24408 -0.12883,0.10849 -0.27121,0.23053 -0.14238,0.11526 -0.34579,0.28476 -0.44071,0.37291 -0.86785,0.69836 -0.42715,0.32545 -0.83396,0.58309 -0.61021,0.38647 -1.30857,0.59665 -0.69835,0.21019 -1.47807,0.21019 -0.50851,0 -0.90176,-0.18307 -0.39324,-0.18984 -0.66445,-0.50173 -0.271206,-0.31866 -0.413589,-0.73903 -0.135603,-0.42715 -0.135603,-0.89498 0,-0.8882 0.372908,-1.78318 0.372908,-0.90175 1.023804,-1.76961 0.16272,-0.21697 0.37968,-0.45427 0.22375,-0.23731 0.46783,-0.42715 0.24409,-0.19662 0.50173,-0.31867 0.25765,-0.12882 0.50174,-0.12882 0.16272,0 0.31188,0.0949 0.15594,0.0881 0.29833,0.24409 0.14916,0.15594 0.27798,0.36612 0.12883,0.20341 0.23731,0.44071 0.21696,0.47461 0.21696,0.69158 0,0.11526 -0.0271,0.28476 -0.0203,0.16273 -0.0881,0.31189 -0.061,0.14916 -0.1695,0.25765 -0.10849,0.1017 -0.27799,0.1017 -0.25086,0 -0.41359,-0.15595 -0.16272,-0.16272 -0.2712,-0.3729 -0.10849,-0.21019 -0.17629,-0.41359 -0.061,-0.20341 -0.11526,-0.29155 -0.16272,0.061 -0.34579,0.23731 -0.17628,0.17628 -0.35256,0.43393 -0.17629,0.25764 -0.33223,0.58309 -0.15594,0.31866 -0.27799,0.68479 -0.11526,0.35935 -0.18984,0.73904 -0.0678,0.37968 -0.0678,0.75259 0,0.34579 0.25086,0.60343 0.28477,0.28477 0.52885,0.28477 0.77294,0 1.48486,-0.28477 0.71869,-0.28476 1.38314,-0.75937 0.44749,-0.31867 0.93566,-0.71192 0.48817,-0.40002 1.07127,-0.95599 0.21018,-0.20341 0.42036,-0.38647 0.21697,-0.18985 0.42037,-0.33223 0.21019,-0.14238 0.39325,-0.23052 0.18984,-0.0882 0.35257,-0.0882 0.35256,0 0.35256,0.37291 z"
         style="font-style:normal;font-variant:normal;font-weight:bold;font-stretch:normal;font-family:'Segoe Script';-inkscape-font-specification:'Segoe Script Bold';fill:none;stroke:#175c63;stroke-width:0.83002806;stroke-miterlimit:4;stroke-dasharray:none;stroke-opacity:1"
         id="path6169" />
      <path
         d="m 110.18246,242.53863 q 0,0.22375 -0.0678,0.42715 -0.0678,0.19663 -0.19663,0.37291 -0.25764,0.35935 -0.79327,0.35935 -0.18985,0 -0.38647,-0.0339 -0.19662,-0.0339 -0.35257,-0.0949 -0.15594,-0.061 -0.25764,-0.15594 -0.1017,-0.0949 -0.1017,-0.21696 0,-0.21019 0.10848,-0.44071 0.10848,-0.23731 0.27798,-0.43393 0.17629,-0.2034 0.37969,-0.33223 0.21019,-0.1356 0.40003,-0.1356 0.2373,0 0.42037,0.0339 0.18306,0.0271 0.3051,0.1017 0.12883,0.0746 0.19663,0.21019 0.0678,0.1356 0.0678,0.339 z m 4.21725,5.58006 q 0,0.15594 -0.12205,0.40003 -0.11526,0.2373 -0.32544,0.53563 -0.20341,0.29154 -0.48817,0.63055 -0.28477,0.33223 -0.617,0.68479 -0.35934,0.38647 -0.77971,0.75938 -0.42037,0.37291 -0.89498,0.71869 -0.46783,0.33901 -0.9221,0.52886 -0.45427,0.18306 -0.86108,0.18306 -0.47461,0 -0.82717,-0.15594 -0.34579,-0.16273 -0.59666,-0.43393 -0.24408,-0.27799 -0.40002,-0.63056 -0.15595,-0.35934 -0.25087,-0.75259 -0.0881,-0.40003 -0.12204,-0.80684 -0.0339,-0.40681 -0.0339,-0.77293 0,-0.14239 0.0203,-0.42715 0.0203,-0.28477 0.0542,-0.59665 0.0407,-0.31867 0.0814,-0.61022 0.0475,-0.29832 0.0949,-0.46783 0.10171,-0.33222 0.46783,-0.63055 0.35257,-0.28477 0.7865,-0.28477 0.44071,0 0.44071,0.52886 0,0.25086 -0.0475,0.53563 -0.0407,0.27798 -0.0949,0.54919 -0.0881,0.49495 -0.12204,0.89498 -0.0339,0.39324 -0.0339,0.69835 0,0.34579 0.0407,0.67123 0.0407,0.32545 0.11526,0.5831 0.0814,0.25086 0.19663,0.4068 0.12204,0.15595 0.28476,0.15595 0.20341,0 0.42037,-0.0339 0.21697,-0.0407 0.52207,-0.20341 0.5831,-0.31866 1.24077,-0.86107 0.23052,-0.18985 0.52207,-0.44749 0.29833,-0.26443 0.58987,-0.53564 0.29155,-0.27798 0.54919,-0.54241 0.25765,-0.26442 0.40681,-0.45427 0.0203,-0.0339 0.0542,-0.0814 0.0407,-0.0542 0.0881,-0.10848 0.0475,-0.0542 0.10171,-0.0881 0.061,-0.0407 0.11526,-0.0407 0.10848,0 0.15594,0.0339 0.0542,0.0271 0.11526,0.18306 0.0746,0.16951 0.0746,0.28477 z"
         style="font-style:normal;font-variant:normal;font-weight:bold;font-stretch:normal;font-family:'Segoe Script';-inkscape-font-specification:'Segoe Script Bold';fill:none;stroke:#175c63;stroke-width:0.83002806;stroke-miterlimit:4;stroke-dasharray:none;stroke-opacity:1"
         id="path6171" />
      <path
         d="m 125.18013,247.61018 q 0,0.12882 -0.0475,0.28476 -0.0475,0.14917 -0.12204,0.29833 -0.0678,0.14916 -0.15594,0.28477 -0.0814,0.12882 -0.15595,0.21696 -0.21696,0.27121 -0.48817,0.57631 -0.26442,0.30511 -0.55597,0.60343 -0.29154,0.29833 -0.59665,0.57632 -0.30511,0.2712 -0.61021,0.47461 -0.23731,0.16272 -0.46105,0.3051 -0.21697,0.1356 -0.45427,0.24409 -0.23053,0.10848 -0.49495,0.1695 -0.25765,0.061 -0.56953,0.061 -0.50851,0 -0.84752,-0.2034 -0.33223,-0.20341 -0.54241,-0.54241 -0.21019,-0.33901 -0.32545,-0.77294 -0.10848,-0.44071 -0.1695,-0.91532 -0.0881,-0.64411 -0.19663,-1.01702 -0.10848,-0.37969 -0.26442,-0.37969 -0.1356,0 -0.26443,0.0678 -0.12882,0.061 -0.32544,0.27121 -0.18985,0.21018 -0.48817,0.61699 -0.29155,0.40003 -0.76616,1.07126 -0.16272,0.23053 -0.40003,0.5153 -0.23052,0.28476 -0.48817,0.54919 -0.25764,0.25764 -0.51529,0.46105 -0.25086,0.19662 -0.46783,0.2712 -0.85429,-0.18984 -0.85429,-1.63401 0,-0.36613 0.0814,-1.07804 0.0407,-0.31867 0.0881,-0.67124 0.0542,-0.35256 0.12882,-0.70513 0.0814,-0.35935 0.18985,-0.69836 0.10848,-0.34578 0.25086,-0.63733 0.0814,-0.16272 0.18306,-0.25764 0.10171,-0.0949 0.20341,-0.14239 0.10848,-0.0475 0.22374,-0.061 0.11527,-0.0136 0.23053,-0.0136 0.1017,0 0.19662,0.0542 0.0949,0.0475 0.16951,0.14238 0.0746,0.0949 0.11526,0.23053 0.0475,0.1356 0.0475,0.31189 0,0.15594 -0.0271,0.29832 -0.0271,0.14238 -0.0746,0.29833 -0.0475,0.14916 -0.10171,0.31866 -0.0475,0.16951 -0.1017,0.38647 -0.0339,0.14239 -0.1017,0.36613 -0.061,0.22374 -0.12882,0.46783 -0.061,0.2373 -0.11526,0.46783 -0.0542,0.23052 -0.0678,0.38647 0.12205,-0.14239 0.27799,-0.35257 0.16272,-0.21696 0.33901,-0.46105 0.17628,-0.25086 0.35934,-0.50851 0.18307,-0.25765 0.36613,-0.48817 0.23731,-0.29833 0.46783,-0.56275 0.23053,-0.26443 0.48139,-0.45427 0.25765,-0.19662 0.55597,-0.30511 0.29833,-0.11526 0.67124,-0.11526 0.4407,0 0.71869,0.18306 0.27799,0.17629 0.44071,0.49495 0.1695,0.31867 0.25086,0.75938 0.0814,0.43393 0.12883,0.94922 0.0271,0.26442 0.0678,0.54241 0.0475,0.27799 0.1356,0.50851 0.0881,0.22375 0.23053,0.37291 0.14238,0.14238 0.35256,0.14238 0.31189,0 0.67802,-0.16272 0.37291,-0.16951 0.77971,-0.46105 0.40681,-0.29155 0.83396,-0.67802 0.42715,-0.38646 0.8543,-0.82717 0.1356,-0.14238 0.25764,-0.27799 0.12883,-0.14238 0.24409,-0.25086 0.11526,-0.11527 0.22374,-0.18307 0.10849,-0.0678 0.21697,-0.0678 0.0407,0 0.0949,0.0136 0.0542,0.007 0.1017,0.0407 0.0475,0.0271 0.0746,0.0814 0.0339,0.0543 0.0339,0.14917 z"
         style="font-style:normal;font-variant:normal;font-weight:bold;font-stretch:normal;font-family:'Segoe Script';-inkscape-font-specification:'Segoe Script Bold';fill:none;stroke:#175c63;stroke-width:0.83002806;stroke-miterlimit:4;stroke-dasharray:none;stroke-opacity:1"
         id="path6173" />
      <path
         d="m 133.68243,249.54252 q 0,0.0746 -0.18985,0.32544 -0.18984,0.25087 -0.50851,0.5831 -0.31866,0.33222 -0.73225,0.69835 -0.40681,0.36613 -0.8543,0.67801 -0.44749,0.30511 -0.89498,0.50851 -0.44071,0.19663 -0.82718,0.19663 -0.3051,0 -0.56953,-0.0746 -0.26442,-0.0746 -0.50851,-0.19663 -0.2373,-0.12204 -0.46105,-0.28476 -0.21696,-0.16951 -0.42037,-0.35257 -0.2034,-0.18306 -0.4068,-0.38647 -0.20341,-0.2034 -0.39325,-0.39325 -0.18307,-0.19662 -0.35257,-0.36612 -0.16272,-0.16951 -0.30511,-0.28477 -0.25086,0.25087 -0.41358,0.42715 -0.15595,0.17628 -0.25087,0.33223 -0.0881,0.14916 -0.12204,0.3051 -0.0339,0.14917 -0.0339,0.36613 0,0.31867 -0.0339,0.52885 -0.0271,0.21019 -0.11527,0.33901 -0.0881,0.12882 -0.25086,0.17628 -0.16272,0.0542 -0.42715,0.0542 -0.2034,0 -0.32545,-0.0407 -0.12204,-0.0339 -0.18984,-0.11526 -0.061,-0.0814 -0.0814,-0.21018 -0.0203,-0.12883 -0.0203,-0.30511 0,-0.17628 0.0203,-0.38647 0.0271,-0.21696 0.061,-0.44071 0.0339,-0.22374 0.0678,-0.43393 0.0407,-0.21696 0.0678,-0.39325 0.007,-0.0339 0.0271,-0.21696 0.0271,-0.18984 0.061,-0.47461 0.0339,-0.28477 0.0814,-0.63733 0.0475,-0.35935 0.0881,-0.72548 0.0475,-0.36612 0.0881,-0.71191 0.0475,-0.35257 0.0814,-0.63055 0.0339,-0.27799 0.0542,-0.45427 0.0271,-0.17629 0.0271,-0.19663 0.0542,-0.41359 0.1017,-0.84074 0.0542,-0.43392 0.0949,-0.85429 0.0475,-0.42715 0.0814,-0.83396 0.0339,-0.40681 0.0475,-0.77294 0.007,-0.15594 0.061,-0.32544 0.0542,-0.17629 0.15594,-0.31867 0.10849,-0.14238 0.25765,-0.23052 0.15594,-0.0949 0.35935,-0.0949 0.27798,0 0.43392,0.0881 0.16273,0.0881 0.24409,0.21696 0.0814,0.12204 0.1017,0.25765 0.0203,0.12882 0.0203,0.21696 0,0.11526 -0.0271,0.33223 -0.0271,0.21696 -0.0678,0.48817 -0.0339,0.2712 -0.0814,0.56275 -0.0475,0.28476 -0.0949,0.54241 -0.0407,0.25086 -0.0746,0.44071 -0.0339,0.18984 -0.0475,0.26442 -0.1356,0.7865 -0.22374,1.26789 -0.0814,0.47461 -0.12882,0.73226 -0.0678,0.36612 -0.10849,0.61021 -0.0407,0.24408 -0.0678,0.42715 -0.0271,0.17628 -0.0475,0.31866 -0.0203,0.13561 -0.0542,0.29155 0.21697,-0.27799 0.46105,-0.57631 0.25087,-0.29833 0.49495,-0.58987 0.24409,-0.29833 0.46783,-0.56954 0.22375,-0.2712 0.38647,-0.49495 0.15594,-0.21696 0.38647,-0.50851 0.23052,-0.29832 0.50851,-0.56275 0.28476,-0.26442 0.59665,-0.44749 0.31867,-0.18984 0.63733,-0.18984 0.19663,0 0.32545,0.0678 0.12882,0.0678 0.2034,0.1695 0.0746,0.10171 0.10171,0.22375 0.0339,0.11526 0.0339,0.21696 0,0.16951 -0.15595,0.37969 -0.14916,0.21018 -0.37291,0.43393 -0.22374,0.21696 -0.4746,0.43393 -0.25087,0.21696 -0.44749,0.40681 -0.50851,0.48817 -0.8882,0.88819 -0.37291,0.40003 -0.69158,0.77972 0.17629,0.12204 0.37969,0.31189 0.20341,0.18984 0.42037,0.39324 0.22374,0.20341 0.45427,0.40681 0.23052,0.20341 0.45427,0.35935 0.2373,0.16272 0.38647,0.25765 0.15594,0.0881 0.27798,0.1356 0.12204,0.0407 0.23731,0.0542 0.11526,0.007 0.26442,0.007 0.18985,0 0.42037,-0.0814 0.23731,-0.0814 0.48139,-0.21697 0.25087,-0.1356 0.50173,-0.3051 0.25765,-0.16951 0.48817,-0.35257 0.23731,-0.18306 0.44071,-0.35935 0.2034,-0.17628 0.35257,-0.31866 0.17628,-0.16273 0.29154,-0.26443 0.11527,-0.1017 0.25087,-0.1017 0.1017,0 0.1695,0.061 0.0678,0.061 0.10848,0.1356 0.0407,0.0746 0.0542,0.14239 0.0203,0.0678 0.0203,0.0814 z"
         style="font-style:normal;font-variant:normal;font-weight:bold;font-stretch:normal;font-family:'Segoe Script';-inkscape-font-specification:'Segoe Script Bold';fill:none;stroke:#175c63;stroke-width:0.83002806;stroke-miterlimit:4;stroke-dasharray:none;stroke-opacity:1"
         id="path6175" />
      <path
         d="m 137.89967,248.33565 q 0,-0.1695 -0.0203,-0.35256 -0.0136,-0.18307 -0.0678,-0.33901 -0.0542,-0.16272 -0.14917,-0.27799 -0.0949,-0.12204 -0.25086,-0.16272 -0.23731,-0.061 -0.38647,-0.12882 -0.14916,-0.0746 -0.2373,-0.13561 -0.0882,-0.061 -0.12205,-0.1017 -0.0339,-0.0407 -0.0475,-0.0407 -0.0542,0 -0.15594,0.0949 -0.0949,0.0881 -0.21696,0.23053 -0.11527,0.14238 -0.24409,0.3051 -0.12204,0.16273 -0.2373,0.30511 -0.14239,0.17628 -0.27121,0.34579 -0.12204,0.16272 -0.24409,0.34578 -0.11526,0.17629 -0.23052,0.37291 -0.11526,0.19663 -0.2373,0.43393 -0.10849,0.21697 -0.16273,0.53563 -0.0542,0.31189 -0.0542,0.58987 0,0.11527 0.0271,0.23731 0.0271,0.11526 0.0814,0.21018 0.0542,0.0949 0.14239,0.15595 0.0881,0.061 0.21696,0.061 0.31189,0 0.52207,-0.0271 0.21019,-0.0339 0.39325,-0.10848 0.18306,-0.0814 0.36613,-0.21019 0.18984,-0.1356 0.45427,-0.33223 0.12204,-0.0949 0.24408,-0.21696 0.12204,-0.12882 0.24409,-0.27121 0.12204,-0.14916 0.2373,-0.3051 0.11526,-0.16273 0.21019,-0.31189 0.0542,-0.0814 0.0881,-0.21018 0.0407,-0.13561 0.061,-0.27121 0.0271,-0.1356 0.0339,-0.25086 0.0136,-0.11527 0.0136,-0.16273 z m 5.26139,-1.52553 q 0,0.12204 -0.0542,0.25765 -0.0475,0.1356 -0.13561,0.26442 -0.0881,0.12204 -0.2034,0.23053 -0.10848,0.10848 -0.22375,0.18306 -0.24408,0.16272 -0.71191,0.28477 -0.46105,0.12204 -1.11872,0.12204 -0.18985,0 -0.40681,-0.0271 -0.21019,-0.0271 -0.43393,-0.0746 -0.21696,-0.0475 -0.43393,-0.11527 -0.21018,-0.0746 -0.40681,-0.16272 0.0407,0.061 0.0678,0.1695 0.0271,0.10171 0.0339,0.21697 0.0136,0.11526 0.0136,0.22374 0.007,0.10171 0.007,0.16273 0,0.43393 -0.15595,0.86785 -0.14916,0.42715 -0.40003,0.8204 -0.25086,0.39325 -0.56953,0.73226 -0.31866,0.33222 -0.65089,0.57631 -0.26443,0.19662 -0.58987,0.33901 -0.31867,0.14238 -0.67802,0.2373 -0.35256,0.0949 -0.73225,0.14238 -0.37291,0.0475 -0.75938,0.0475 -0.31866,0 -0.61021,-0.15594 -0.29155,-0.15594 -0.51529,-0.40003 -0.21697,-0.25086 -0.35257,-0.56275 -0.12882,-0.31189 -0.12882,-0.61699 0,-0.54241 0.14238,-1.04414 0.14916,-0.50173 0.39325,-0.96956 0.24408,-0.46783 0.56953,-0.91532 0.32545,-0.45427 0.6848,-0.89498 0.21018,-0.25765 0.48139,-0.50173 0.2712,-0.24409 0.56953,-0.43393 0.3051,-0.19662 0.61021,-0.31189 0.31189,-0.11526 0.59665,-0.11526 0.23731,0 0.40681,0.0542 0.17628,0.0542 0.31867,0.15595 0.14916,0.0949 0.28476,0.2373 0.13561,0.14238 0.28477,0.31867 l 0.14238,0.15594 q 0.0542,0.0542 0.29155,0.16272 0.24408,0.10849 0.57631,0.21697 0.33223,0.1017 0.69835,0.18306 0.36613,0.0814 0.66446,0.0814 0.3051,0 0.57631,-0.007 0.2712,-0.007 0.54241,-0.0475 0.27799,-0.0475 0.57631,-0.1356 0.30511,-0.0949 0.67124,-0.25764 0.0339,0.061 0.0475,0.15594 0.0203,0.0949 0.0203,0.14916 z"
         style="font-style:normal;font-variant:normal;font-weight:bold;font-stretch:normal;font-family:'Segoe Script';-inkscape-font-specification:'Segoe Script Bold';fill:none;stroke:#175c63;stroke-width:0.83002806;stroke-miterlimit:4;stroke-dasharray:none;stroke-opacity:1"
         id="path6177" />
      <path
         d="m 155.95517,246.8508 q 0,0.17629 -0.0881,0.33901 -0.0881,0.15594 -0.22374,0.29155 -0.1356,0.1356 -0.31189,0.25086 -0.1695,0.11526 -0.33901,0.2034 -0.34578,0.17629 -0.79327,0.29155 -0.44749,0.11526 -1.01024,0.11526 -0.46783,0 -0.86786,-0.1017 -0.39325,-0.1017 -0.69157,-0.21696 -0.21697,0.36612 -0.41359,0.86107 -0.19663,0.49495 -0.40003,1.07127 -0.0271,0.0746 -0.0814,0.2373 -0.0542,0.15594 -0.12205,0.35935 -0.061,0.19662 -0.1356,0.42037 -0.0678,0.21696 -0.1356,0.42037 -0.0678,0.19662 -0.12204,0.35934 -0.0542,0.16273 -0.0814,0.24409 -0.17629,0.48817 -0.46105,0.67801 -0.28477,0.18985 -0.62378,0.18985 -0.36612,0 -0.67123,-0.23731 -0.29833,-0.23052 -0.49495,-0.56953 -0.19663,-0.34579 -0.35935,-0.7187 -0.16272,-0.37968 -0.29154,-0.75937 -0.12883,-0.37969 -0.23731,-0.7526 -0.1017,-0.37968 -0.18306,-0.72547 -0.0203,-0.0881 -0.0407,-0.18985 -0.0203,-0.1017 -0.0542,-0.1017 -0.0136,0 -0.0746,0.12883 -0.0542,0.12204 -0.12882,0.31866 -0.0746,0.18985 -0.16272,0.42715 -0.0881,0.23053 -0.16951,0.46105 -0.0814,0.22374 -0.14916,0.41359 -0.061,0.18306 -0.0949,0.27798 -0.0746,0.22375 -0.18306,0.48817 -0.10171,0.26443 -0.23053,0.52885 -0.12204,0.25765 -0.26442,0.50174 -0.14239,0.2373 -0.29833,0.42036 -0.15594,0.18985 -0.32545,0.29833 -0.16272,0.11526 -0.33222,0.11526 -0.32545,0 -0.57632,-0.18984 -0.24408,-0.18307 -0.37968,-0.44071 -0.27799,-0.55597 -0.51529,-1.24755 -0.23731,-0.69157 -0.41359,-1.41705 -0.16951,-0.73225 -0.27121,-1.43738 -0.0949,-0.71192 -0.0949,-1.30857 0,-0.50851 0.2034,-0.73226 0.20341,-0.22374 0.69158,-0.22374 0.21018,0 0.33222,0.12882 0.12883,0.12882 0.19663,0.33223 0.0746,0.19662 0.1017,0.44749 0.0339,0.25086 0.0407,0.49495 0.0136,0.2373 0.0203,0.44071 0.007,0.2034 0.0339,0.31866 0.0271,0.24409 0.0814,0.56275 0.061,0.31867 0.12883,0.65768 0.0678,0.33222 0.14238,0.65767 0.0814,0.31867 0.14916,0.57631 0.0746,0.25087 0.12883,0.40681 0.061,0.15595 0.0949,0.15595 0.0407,0 0.1017,-0.11527 0.061,-0.12204 0.14238,-0.339 0.0881,-0.21697 0.19663,-0.52208 0.11526,-0.31188 0.26442,-0.68479 0.14238,-0.37969 0.27799,-0.72547 0.1356,-0.34579 0.26442,-0.67802 0.13561,-0.339 0.27799,-0.67123 0.14916,-0.33223 0.31189,-0.6848 0.0475,-0.11526 0.14238,-0.23052 0.1017,-0.12204 0.23052,-0.21696 0.12883,-0.0949 0.26443,-0.14917 0.14238,-0.061 0.2712,-0.061 0.53563,0 0.61022,0.61699 0.0678,0.54241 0.1695,1.07805 0.1017,0.52885 0.21696,1.01024 0.12205,0.47461 0.24409,0.88141 0.12882,0.40003 0.24408,0.69836 0.12205,0.29154 0.22375,0.46105 0.1017,0.16272 0.17628,0.16272 0.061,0 0.13561,-0.14916 0.0814,-0.14916 0.16272,-0.38647 0.0881,-0.2373 0.17628,-0.52885 0.0881,-0.29833 0.16951,-0.58309 0.0814,-0.28477 0.14916,-0.52885 0.0678,-0.25087 0.12204,-0.40003 0.0746,-0.21019 0.16272,-0.48139 0.0949,-0.27121 0.20341,-0.55597 0.10848,-0.28477 0.23052,-0.55597 0.12883,-0.27121 0.27799,-0.48139 0.14916,-0.21697 0.31189,-0.34579 0.1695,-0.12882 0.35934,-0.12882 0.19663,0.0136 0.31867,0.0475 0.12882,0.0339 0.21696,0.0949 0.0881,0.0542 0.15595,0.12882 0.0678,0.0746 0.1356,0.16951 0.0678,0.0881 0.22374,0.18306 0.16273,0.0881 0.34579,0.16272 0.18985,0.0746 0.36613,0.12204 0.18306,0.0475 0.28477,0.0475 0.48817,0 0.98312,-0.0814 0.49495,-0.0814 0.94243,-0.29832 0.0678,-0.0339 0.16273,-0.0746 0.0949,-0.0475 0.14916,-0.0475 0.0203,0 0.0475,0.007 0.0339,0.007 0.061,0.0407 0.0271,0.0271 0.0475,0.0949 0.0203,0.061 0.0203,0.17628 z"
         style="font-style:normal;font-variant:normal;font-weight:bold;font-stretch:normal;font-family:'Segoe Script';-inkscape-font-specification:'Segoe Script Bold';fill:none;stroke:#175c63;stroke-width:0.83002806;stroke-miterlimit:4;stroke-dasharray:none;stroke-opacity:1"
         id="path6179" />
      <path
         d="m 161.18268,247.55594 q 0,0.18306 -0.16273,0.46105 -0.16272,0.2712 -0.41359,0.57631 -0.24408,0.3051 -0.54919,0.62377 -0.3051,0.31189 -0.58987,0.58987 -0.1695,0.16273 -0.50173,0.45427 -0.33223,0.28477 -0.74582,0.63056 -0.4068,0.34578 -0.85429,0.71869 -0.44749,0.36613 -0.84752,0.68479 -0.39325,0.31867 -0.69835,0.55598 -0.30511,0.2373 -0.43393,0.32544 -0.42037,0.27799 -0.7865,0.42715 -0.35935,0.14916 -0.64411,0.14916 -0.23731,0 -0.40003,-0.0475 -0.16272,-0.0407 -0.26443,-0.11526 -0.1017,-0.0678 -0.14916,-0.16272 -0.0475,-0.0881 -0.0475,-0.18307 0,-0.2373 0.0881,-0.42715 0.0881,-0.18306 0.27121,-0.34578 0.18984,-0.16273 0.47461,-0.31189 0.29154,-0.15594 0.68479,-0.31867 0.25765,-0.1017 0.46105,-0.19662 0.21018,-0.0949 0.35935,-0.2034 0.15594,-0.11527 0.2373,-0.25765 0.0814,-0.14238 0.0814,-0.34579 0,-0.0475 -0.0678,-0.17628 -0.061,-0.12882 -0.16272,-0.29833 -0.1017,-0.1695 -0.23053,-0.36612 -0.12204,-0.20341 -0.24408,-0.39325 -0.12204,-0.19663 -0.23053,-0.36613 -0.10848,-0.1695 -0.1695,-0.28476 -0.27798,-0.5153 -0.27798,-1.05093 0,-0.23052 0.0407,-0.47461 0.0407,-0.24408 0.1356,-0.49495 0.0881,-0.31188 0.28476,-0.61021 0.20341,-0.29832 0.44749,-0.52885 0.24409,-0.2373 0.48817,-0.37969 0.25087,-0.14238 0.43393,-0.14238 0.24409,0 0.40003,0.0475 0.15594,0.0407 0.23731,0.1356 0.0881,0.0881 0.12204,0.23053 0.0339,0.1356 0.0339,0.33223 0,0.16272 -0.0814,0.31866 -0.0814,0.15594 -0.19663,0.29155 -0.11526,0.1356 -0.24408,0.25086 -0.12882,0.11527 -0.22375,0.20341 -0.14238,0.12882 -0.2712,0.24408 -0.12882,0.10848 -0.20341,0.18985 0.007,0.42714 0.21019,0.78649 0.1017,0.17629 0.25086,0.43393 0.15595,0.25765 0.31189,0.52885 0.16272,0.26443 0.30511,0.50851 0.14238,0.24409 0.22374,0.38647 0.1017,-0.0475 0.29155,-0.17628 0.19662,-0.13561 0.45427,-0.31867 0.25764,-0.18984 0.54919,-0.42037 0.29832,-0.23052 0.59665,-0.47461 0.29833,-0.24408 0.57631,-0.48139 0.27799,-0.24408 0.50173,-0.46105 0.18985,-0.18306 0.31189,-0.31188 0.12882,-0.13561 0.21696,-0.21697 0.0949,-0.0881 0.16273,-0.12882 0.0678,-0.0475 0.14916,-0.0475 0.0881,0 0.14238,0.0678 0.061,0.061 0.0949,0.14238 0.0339,0.0746 0.0475,0.14239 0.0136,0.0678 0.0136,0.0814 z"
         style="font-style:normal;font-variant:normal;font-weight:bold;font-stretch:normal;font-family:'Segoe Script';-inkscape-font-specification:'Segoe Script Bold';fill:none;stroke:#175c63;stroke-width:0.83002806;stroke-miterlimit:4;stroke-dasharray:none;stroke-opacity:1"
         id="path6181" />
      <path
         d="m 169.61716,249.54252 q 0,0.0746 -0.18985,0.32544 -0.18984,0.25087 -0.50851,0.5831 -0.31866,0.33222 -0.73225,0.69835 -0.40681,0.36613 -0.8543,0.67801 -0.44749,0.30511 -0.89498,0.50851 -0.44071,0.19663 -0.82718,0.19663 -0.3051,0 -0.56953,-0.0746 -0.26442,-0.0746 -0.50851,-0.19663 -0.2373,-0.12204 -0.46105,-0.28476 -0.21696,-0.16951 -0.42037,-0.35257 -0.2034,-0.18306 -0.4068,-0.38647 -0.20341,-0.2034 -0.39325,-0.39325 -0.18307,-0.19662 -0.35257,-0.36612 -0.16272,-0.16951 -0.30511,-0.28477 -0.25086,0.25087 -0.41358,0.42715 -0.15595,0.17628 -0.25087,0.33223 -0.0881,0.14916 -0.12204,0.3051 -0.0339,0.14917 -0.0339,0.36613 0,0.31867 -0.0339,0.52885 -0.0271,0.21019 -0.11527,0.33901 -0.0881,0.12882 -0.25086,0.17628 -0.16272,0.0542 -0.42715,0.0542 -0.2034,0 -0.32545,-0.0407 -0.12204,-0.0339 -0.18984,-0.11526 -0.061,-0.0814 -0.0814,-0.21018 -0.0203,-0.12883 -0.0203,-0.30511 0,-0.17628 0.0203,-0.38647 0.0271,-0.21696 0.061,-0.44071 0.0339,-0.22374 0.0678,-0.43393 0.0407,-0.21696 0.0678,-0.39325 0.007,-0.0339 0.0271,-0.21696 0.0271,-0.18984 0.061,-0.47461 0.0339,-0.28477 0.0814,-0.63733 0.0475,-0.35935 0.0881,-0.72548 0.0475,-0.36612 0.0881,-0.71191 0.0475,-0.35257 0.0814,-0.63055 0.0339,-0.27799 0.0542,-0.45427 0.0271,-0.17629 0.0271,-0.19663 0.0542,-0.41359 0.1017,-0.84074 0.0543,-0.43392 0.0949,-0.85429 0.0475,-0.42715 0.0814,-0.83396 0.0339,-0.40681 0.0475,-0.77294 0.007,-0.15594 0.061,-0.32544 0.0542,-0.17629 0.15594,-0.31867 0.10849,-0.14238 0.25765,-0.23052 0.15594,-0.0949 0.35935,-0.0949 0.27798,0 0.43393,0.0881 0.16272,0.0881 0.24408,0.21696 0.0814,0.12204 0.1017,0.25765 0.0203,0.12882 0.0203,0.21696 0,0.11526 -0.0271,0.33223 -0.0271,0.21696 -0.0678,0.48817 -0.0339,0.2712 -0.0814,0.56275 -0.0475,0.28476 -0.0949,0.54241 -0.0407,0.25086 -0.0746,0.44071 -0.0339,0.18984 -0.0475,0.26442 -0.1356,0.7865 -0.22374,1.26789 -0.0814,0.47461 -0.12882,0.73226 -0.0678,0.36612 -0.10848,0.61021 -0.0407,0.24408 -0.0678,0.42715 -0.0271,0.17628 -0.0475,0.31866 -0.0203,0.13561 -0.0542,0.29155 0.21697,-0.27799 0.46105,-0.57631 0.25087,-0.29833 0.49495,-0.58987 0.24409,-0.29833 0.46783,-0.56954 0.22375,-0.2712 0.38647,-0.49495 0.15594,-0.21696 0.38647,-0.50851 0.23052,-0.29832 0.50851,-0.56275 0.28476,-0.26442 0.59665,-0.44749 0.31867,-0.18984 0.63733,-0.18984 0.19663,0 0.32545,0.0678 0.12882,0.0678 0.2034,0.1695 0.0746,0.10171 0.10171,0.22375 0.0339,0.11526 0.0339,0.21696 0,0.16951 -0.15595,0.37969 -0.14916,0.21018 -0.3729,0.43393 -0.22375,0.21696 -0.47461,0.43393 -0.25087,0.21696 -0.44749,0.40681 -0.50851,0.48817 -0.8882,0.88819 -0.37291,0.40003 -0.69158,0.77972 0.17629,0.12204 0.37969,0.31189 0.20341,0.18984 0.42037,0.39324 0.22375,0.20341 0.45427,0.40681 0.23052,0.20341 0.45427,0.35935 0.2373,0.16272 0.38647,0.25765 0.15594,0.0881 0.27798,0.1356 0.12205,0.0407 0.23731,0.0542 0.11526,0.007 0.26442,0.007 0.18985,0 0.42037,-0.0814 0.23731,-0.0814 0.48139,-0.21697 0.25087,-0.1356 0.50173,-0.3051 0.25765,-0.16951 0.48817,-0.35257 0.23731,-0.18306 0.44071,-0.35935 0.20341,-0.17628 0.35257,-0.31866 0.17628,-0.16273 0.29154,-0.26443 0.11527,-0.1017 0.25087,-0.1017 0.1017,0 0.1695,0.061 0.0678,0.061 0.10849,0.1356 0.0407,0.0746 0.0542,0.14239 0.0203,0.0678 0.0203,0.0814 z"
         style="font-style:normal;font-variant:normal;font-weight:bold;font-stretch:normal;font-family:'Segoe Script';-inkscape-font-specification:'Segoe Script Bold';fill:none;stroke:#175c63;stroke-width:0.83002806;stroke-miterlimit:4;stroke-dasharray:none;stroke-opacity:1"
         id="path6183" />
      <path
         d="m 173.5632,247.21015 q 0,-0.061 -0.0271,-0.14238 -0.0203,-0.0814 -0.061,-0.14917 -0.0339,-0.0746 -0.0814,-0.12204 -0.0475,-0.0542 -0.0881,-0.0542 -0.44749,0 -0.8204,0.24408 -0.36613,0.23731 -0.76616,0.6509 -0.22374,0.22374 -0.48139,0.60343 -0.25086,0.37969 -0.46783,0.80684 -0.21696,0.42715 -0.35934,0.85429 -0.14239,0.42715 -0.14239,0.7526 0,0.0814 0.007,0.16272 0.0136,0.0746 0.0407,0.13561 0.0339,0.061 0.0881,0.1017 0.0542,0.0407 0.14238,0.0407 0.25765,0 0.58309,-0.16272 0.32545,-0.16951 0.6509,-0.43393 0.33222,-0.27121 0.63733,-0.617 0.31188,-0.35256 0.52207,-0.71869 0.25764,-0.44749 0.44071,-0.93566 0.18306,-0.48817 0.18306,-1.01702 z m 6.16315,0.69835 q 0,0.0814 -0.0339,0.19663 -0.0271,0.10848 -0.0746,0.22374 -0.0475,0.10848 -0.10849,0.21697 -0.0542,0.1017 -0.10848,0.17628 -0.0339,0.0475 -0.10848,0.1356 -0.0746,0.0814 -0.1695,0.18985 -0.0949,0.1017 -0.21697,0.22374 -0.11526,0.12204 -0.2373,0.24409 -0.39325,0.36612 -0.80006,0.72547 -0.40003,0.35257 -0.84074,0.63055 -0.44071,0.27121 -0.9221,0.44071 -0.48139,0.16951 -1.0238,0.16951 -0.23052,0 -0.46783,-0.1017 -0.2373,-0.10171 -0.44071,-0.27799 -0.2034,-0.17628 -0.35934,-0.42037 -0.14917,-0.25086 -0.21019,-0.53563 -0.12204,0.2034 -0.31866,0.44071 -0.19663,0.23052 -0.43393,0.46105 -0.23053,0.23052 -0.48139,0.44071 -0.25087,0.2034 -0.46783,0.35256 -0.14917,0.10171 -0.36613,0.21019 -0.21018,0.10848 -0.44749,0.2034 -0.2373,0.0881 -0.48139,0.14917 -0.2373,0.0542 -0.44071,0.0542 -0.32544,0 -0.56953,-0.18307 -0.24408,-0.18984 -0.40681,-0.46105 -0.15594,-0.2712 -0.2373,-0.57631 -0.0746,-0.3051 -0.0746,-0.54919 0,-0.44749 0.12882,-0.90854 0.1356,-0.46783 0.33901,-0.90854 0.21018,-0.44071 0.46104,-0.84073 0.25765,-0.40003 0.50174,-0.71192 0.25764,-0.32544 0.61699,-0.64411 0.35935,-0.32545 0.75259,-0.57631 0.39325,-0.25765 0.77294,-0.41359 0.38647,-0.15594 0.68479,-0.15594 0.16273,0 0.33223,0.0136 0.17628,0.007 0.34579,0.0271 0.1695,0.0203 0.32544,0.061 0.15595,0.0407 0.27799,0.1017 0.0814,0.0542 0.17628,0.19662 0.10171,0.13561 0.18307,0.29833 0.0881,0.15594 0.14916,0.31189 0.061,0.15594 0.061,0.24408 0,0.18984 -0.061,0.45427 -0.0542,0.25765 -0.12882,0.54241 -0.0678,0.28477 -0.12883,0.58309 -0.061,0.29833 -0.061,0.56953 0,0.18985 0.0542,0.38647 0.0543,0.19663 0.15595,0.35935 0.1017,0.15594 0.24408,0.25765 0.14239,0.1017 0.31867,0.1017 0.40003,0 0.79328,-0.14917 0.39324,-0.14916 0.78649,-0.4068 0.39325,-0.26443 0.7865,-0.617 0.39325,-0.35934 0.79327,-0.77293 0.0136,0 0.10849,-0.1017 0.0949,-0.10171 0.22374,-0.22375 0.1356,-0.12204 0.27799,-0.22374 0.14916,-0.10171 0.25764,-0.10171 0.19663,0 0.25765,0.11527 0.061,0.11526 0.061,0.35256 z"
         style="font-style:normal;font-variant:normal;font-weight:bold;font-stretch:normal;font-family:'Segoe Script';-inkscape-font-specification:'Segoe Script Bold';fill:none;stroke:#175c63;stroke-width:0.83002806;stroke-miterlimit:4;stroke-dasharray:none;stroke-opacity:1"
         id="path6185" />
      <path
         d="m 185.23182,248.57296 q 0,0.31188 -0.17629,0.47461 -0.17628,0.15594 -0.61021,0.15594 -0.0678,0 -0.18984,-0.0271 -0.11526,-0.0271 -0.24409,-0.0542 -0.12882,-0.0339 -0.24408,-0.061 -0.10848,-0.0271 -0.15595,-0.0271 -0.0407,0 -0.11526,0.007 -0.0746,0.007 -0.16272,0.0136 -0.0881,0.007 -0.18307,0.0136 -0.0881,0.007 -0.15594,0.007 -0.0881,0 -0.27798,-0.0136 -0.18307,-0.0136 -0.38647,-0.0271 -0.19663,-0.0136 -0.37969,-0.0271 -0.17628,-0.0136 -0.25087,-0.0136 -0.12204,0 -0.3729,0.0136 -0.25087,0.0136 -0.52885,0.0271 -0.27799,0.0136 -0.53563,0.0271 -0.25087,0.0136 -0.37969,0.0136 -0.21697,0 -0.39325,-0.0203 -0.17628,-0.0271 -0.30511,-0.0881 -0.12882,-0.061 -0.19662,-0.16951 -0.0678,-0.11526 -0.0678,-0.29832 0,-0.17629 0.1017,-0.29833 0.10848,-0.12204 0.27121,-0.2034 0.16272,-0.0814 0.35934,-0.12883 0.19663,-0.0475 0.37969,-0.0678 0.18984,-0.0271 0.33901,-0.0339 0.15594,-0.007 0.22374,-0.007 0.0814,0 0.23053,0.0271 0.14916,0.0203 0.26442,0.0475 0.46783,0 0.81362,-0.007 0.35257,-0.007 0.61699,-0.0136 0.26443,-0.0136 0.46105,-0.0271 0.19663,-0.0203 0.35257,-0.0407 0.28476,-0.0407 0.60343,-0.0407 0.0949,0 0.24409,0.0407 0.14916,0.0407 0.3051,0.1017 0.15595,0.0542 0.29833,0.12205 0.14238,0.061 0.21696,0.10848 0.0475,0.0271 0.0881,0.0881 0.0475,0.0542 0.0746,0.12882 0.0339,0.0678 0.0475,0.14238 0.0203,0.0746 0.0203,0.13561 z"
         style="font-style:normal;font-variant:normal;font-weight:bold;font-stretch:normal;font-family:'Segoe Script';-inkscape-font-specification:'Segoe Script Bold';fill:none;stroke:#175c63;stroke-width:0.83002806;stroke-miterlimit:4;stroke-dasharray:none;stroke-opacity:1"
         id="path6187" />
      <path
         d="m 193.35444,243.67092 q -0.53564,0 -1.17297,0.0678 -0.63055,0.061 -1.24754,0.16272 0.2034,0.20341 0.2034,0.54919 0,0.0407 -0.0542,0.21697 -0.0475,0.1695 -0.10848,0.37291 -0.061,0.2034 -0.12205,0.37968 -0.0542,0.17629 -0.0746,0.21697 -0.0339,0.0881 -0.0678,0.22374 -0.0271,0.12882 -0.061,0.28477 -0.0271,0.15594 -0.0542,0.32544 -0.0271,0.16273 -0.0542,0.31867 -0.0407,0.21019 -0.0678,0.37291 -0.0203,0.15594 -0.0339,0.28476 -0.0136,0.12205 -0.0271,0.23731 -0.007,0.11526 -0.0136,0.2373 0.22375,-0.0949 0.50851,-0.21018 0.28477,-0.12204 0.57632,-0.24409 0.29832,-0.12882 0.57631,-0.25086 0.28476,-0.12882 0.50173,-0.23053 0.11526,-0.061 0.25764,-0.1356 0.14917,-0.0746 0.29833,-0.15594 0.15594,-0.0814 0.31189,-0.16272 0.15594,-0.0881 0.28476,-0.16951 0.32545,-0.19662 0.67124,-0.46105 0.35256,-0.2712 0.64411,-0.57631 0.29155,-0.30511 0.47461,-0.61699 0.18984,-0.31867 0.18984,-0.59665 0,-0.14239 -0.34578,-0.23053 -0.50851,-0.1356 -1.04415,-0.1695 -0.52885,-0.0407 -0.94921,-0.0407 z m 3.87145,0.52885 q 0,0.10848 -0.0542,0.3051 -0.0542,0.18985 -0.14238,0.41359 -0.0814,0.21697 -0.18306,0.42715 -0.10171,0.20341 -0.19663,0.33901 -0.23052,0.32544 -0.63733,0.68479 -0.40003,0.35935 -0.94922,0.73226 -0.50851,0.34578 -1.05092,0.67123 -0.54241,0.31867 -1.07126,0.58309 -0.63734,0.32545 -1.32213,0.617 -0.67801,0.28476 -1.33569,0.49495 v 0.32544 q 0,0.0881 0.007,0.28477 0.0136,0.19662 0.0271,0.45427 0.0203,0.25764 0.0339,0.54919 0.0203,0.29155 0.0339,0.56953 0.0203,0.27799 0.0271,0.51529 0.0136,0.23731 0.0136,0.38647 0,0.34579 -0.22375,0.53563 -0.21696,0.19662 -0.58309,0.19662 -0.97634,0 -0.97634,-3.30192 0,-0.29155 0.0136,-0.58988 0.0203,-0.29832 0.0542,-0.63733 0.0407,-0.34579 0.0949,-0.73903 0.0542,-0.39325 0.12882,-0.88142 0.061,-0.40681 0.12205,-0.77972 0.0678,-0.37291 0.14916,-0.72547 0.0814,-0.35935 0.18984,-0.70514 0.11527,-0.34578 0.27121,-0.69835 -0.21697,0.061 -0.44749,0.14238 -0.22374,0.0746 -0.47461,0.15594 -0.0746,0.0339 -0.14916,0.0543 -0.0746,0.0203 -0.16273,0.0203 -0.25764,0 -0.42714,-0.14239 -0.16273,-0.14238 -0.16273,-0.3729 0,-0.27799 0.11526,-0.48139 0.11527,-0.21019 0.36613,-0.37291 0.25765,-0.16273 0.6509,-0.28477 0.40002,-0.12882 0.96956,-0.24408 0.32544,-0.0678 0.70513,-0.12883 0.37969,-0.0678 0.76616,-0.11526 0.38646,-0.0542 0.75259,-0.0881 0.36613,-0.0339 0.66445,-0.0339 0.35935,0 0.69158,0.007 0.33901,0.007 0.66445,0.0339 0.32545,0.0271 0.64412,0.0746 0.32544,0.0475 0.65767,0.12882 0.74581,0.18307 1.1933,0.54242 0.54241,0.42036 0.54241,1.07804 z"
         style="font-style:normal;font-variant:normal;font-weight:bold;font-stretch:normal;font-family:'Segoe Script';-inkscape-font-specification:'Segoe Script Bold';fill:none;stroke:#175c63;stroke-width:0.83002806;stroke-miterlimit:4;stroke-dasharray:none;stroke-opacity:1"
         id="path6189" />
      <path
         d="m 205.10441,247.04065 q 0,0.061 -0.0271,0.16272 -0.0271,0.1017 -0.0814,0.2034 -0.0542,0.10171 -0.14238,0.17629 -0.0814,0.0746 -0.2034,0.0814 -0.0271,0 -0.11527,0 -0.0881,-0.007 -0.18984,-0.0136 -0.1017,-0.007 -0.18984,-0.007 -0.0882,-0.007 -0.12883,-0.007 -1.13228,0.061 -1.95946,0.81362 -0.18984,0.1695 -0.39325,0.40002 -0.19662,0.23053 -0.39324,0.50851 -0.18985,0.27121 -0.36613,0.5831 -0.17629,0.31188 -0.31867,0.65089 -0.11526,0.27798 -0.22374,0.57631 -0.10848,0.29155 -0.18985,0.61699 -0.0475,0.17629 -0.0746,0.31189 -0.0203,0.12882 -0.0746,0.30511 -0.0339,0.10848 -0.11526,0.18306 -0.0814,0.0814 -0.18985,0.12882 -0.10848,0.0542 -0.23052,0.0814 -0.11526,0.0271 -0.23053,0.0339 -0.43392,0 -0.59665,-0.39324 -0.16272,-0.39325 -0.16272,-1.17297 0,-0.17628 0,-0.33222 0.007,-0.15595 0.0136,-0.31189 0.0136,-0.16272 0.0271,-0.33223 0.0136,-0.17628 0.0339,-0.39325 0.0271,-0.31866 0.0746,-0.75259 0.0475,-0.44071 0.1017,-0.8882 0.0543,-0.45427 0.11527,-0.87464 0.0678,-0.42037 0.1356,-0.71191 0.0814,-0.35935 0.2712,-0.56275 0.19663,-0.20341 0.56954,-0.20341 0.10848,0 0.21696,0.061 0.11526,0.0542 0.20341,0.13561 0.0881,0.0814 0.14916,0.17628 0.061,0.0949 0.0678,0.1695 l 0.007,0.12205 q 0,0.18984 -0.0339,0.44749 -0.0339,0.25764 -0.0949,0.54919 -0.0542,0.28476 -0.12205,0.58309 -0.061,0.29154 -0.12882,0.56275 -0.061,0.26443 -0.11526,0.49495 -0.0475,0.22375 -0.0746,0.37291 0.2373,-0.50173 0.50851,-0.96278 0.2712,-0.46783 0.58309,-0.86108 0.31189,-0.40003 0.67123,-0.71191 0.35935,-0.31189 0.77294,-0.50173 0.32545,-0.14917 0.59665,-0.22375 0.27121,-0.0814 0.48817,-0.0814 0.25765,0 0.52885,0.0542 0.27799,0.0542 0.50173,0.16272 0.23053,0.10171 0.37969,0.25087 0.14916,0.14916 0.14916,0.33901 z"
         style="font-style:normal;font-variant:normal;font-weight:bold;font-stretch:normal;font-family:'Segoe Script';-inkscape-font-specification:'Segoe Script Bold';fill:none;stroke:#175c63;stroke-width:0.83002806;stroke-miterlimit:4;stroke-dasharray:none;stroke-opacity:1"
         id="path6191" />
      <path
         d="m 209.52505,247.21015 q 0,-0.061 -0.0271,-0.14238 -0.0203,-0.0814 -0.061,-0.14917 -0.0339,-0.0746 -0.0814,-0.12204 -0.0475,-0.0542 -0.0881,-0.0542 -0.44749,0 -0.8204,0.24408 -0.36612,0.23731 -0.76615,0.6509 -0.22375,0.22374 -0.48139,0.60343 -0.25087,0.37969 -0.46783,0.80684 -0.21697,0.42715 -0.35935,0.85429 -0.14238,0.42715 -0.14238,0.7526 0,0.0814 0.007,0.16272 0.0136,0.0746 0.0407,0.13561 0.0339,0.061 0.0881,0.1017 0.0542,0.0407 0.14238,0.0407 0.25765,0 0.58309,-0.16272 0.32545,-0.16951 0.6509,-0.43393 0.33223,-0.27121 0.63733,-0.617 0.31189,-0.35256 0.52207,-0.71869 0.25765,-0.44749 0.44071,-0.93566 0.18306,-0.48817 0.18306,-1.01702 z m 6.16315,0.69835 q 0,0.0814 -0.0339,0.19663 -0.0271,0.10848 -0.0746,0.22374 -0.0475,0.10848 -0.10848,0.21697 -0.0542,0.1017 -0.10849,0.17628 -0.0339,0.0475 -0.10848,0.1356 -0.0746,0.0814 -0.1695,0.18985 -0.0949,0.1017 -0.21697,0.22374 -0.11526,0.12204 -0.2373,0.24409 -0.39325,0.36612 -0.80006,0.72547 -0.40002,0.35257 -0.84073,0.63055 -0.44071,0.27121 -0.9221,0.44071 -0.48139,0.16951 -1.0238,0.16951 -0.23053,0 -0.46783,-0.1017 -0.23731,-0.10171 -0.44071,-0.27799 -0.20341,-0.17628 -0.35935,-0.42037 -0.14916,-0.25086 -0.21018,-0.53563 -0.12205,0.2034 -0.31867,0.44071 -0.19662,0.23052 -0.43393,0.46105 -0.23052,0.23052 -0.48139,0.44071 -0.25086,0.2034 -0.46783,0.35256 -0.14916,0.10171 -0.36613,0.21019 -0.21018,0.10848 -0.44749,0.2034 -0.2373,0.0881 -0.48139,0.14917 -0.2373,0.0542 -0.4407,0.0542 -0.32545,0 -0.56954,-0.18307 -0.24408,-0.18984 -0.4068,-0.46105 -0.15595,-0.2712 -0.23731,-0.57631 -0.0746,-0.3051 -0.0746,-0.54919 0,-0.44749 0.12882,-0.90854 0.1356,-0.46783 0.33901,-0.90854 0.21018,-0.44071 0.46105,-0.84073 0.25764,-0.40003 0.50173,-0.71192 0.25764,-0.32544 0.61699,-0.64411 0.35935,-0.32545 0.7526,-0.57631 0.39324,-0.25765 0.77293,-0.41359 0.38647,-0.15594 0.6848,-0.15594 0.16272,0 0.33222,0.0136 0.17629,0.007 0.34579,0.0271 0.1695,0.0203 0.32545,0.061 0.15594,0.0407 0.27798,0.1017 0.0814,0.0542 0.17629,0.19662 0.1017,0.13561 0.18306,0.29833 0.0881,0.15594 0.14916,0.31189 0.061,0.15594 0.061,0.24408 0,0.18984 -0.061,0.45427 -0.0542,0.25765 -0.12882,0.54241 -0.0678,0.28477 -0.12882,0.58309 -0.061,0.29833 -0.061,0.56953 0,0.18985 0.0542,0.38647 0.0542,0.19663 0.15594,0.35935 0.1017,0.15594 0.24409,0.25765 0.14238,0.1017 0.31866,0.1017 0.40003,0 0.79328,-0.14917 0.39325,-0.14916 0.78649,-0.4068 0.39325,-0.26443 0.7865,-0.617 0.39325,-0.35934 0.79328,-0.77293 0.0136,0 0.10848,-0.1017 0.0949,-0.10171 0.22374,-0.22375 0.13561,-0.12204 0.27799,-0.22374 0.14916,-0.10171 0.25764,-0.10171 0.19663,0 0.25765,0.11527 0.061,0.11526 0.061,0.35256 z"
         style="font-style:normal;font-variant:normal;font-weight:bold;font-stretch:normal;font-family:'Segoe Script';-inkscape-font-specification:'Segoe Script Bold';fill:none;stroke:#175c63;stroke-width:0.83002806;stroke-miterlimit:4;stroke-dasharray:none;stroke-opacity:1"
         id="path6193" />
      <path
         d="m 221.71576,247.55594 q 0,0.18306 -0.16273,0.46105 -0.16272,0.2712 -0.41359,0.57631 -0.24408,0.3051 -0.54919,0.62377 -0.3051,0.31189 -0.58987,0.58987 -0.1695,0.16273 -0.50173,0.45427 -0.33223,0.28477 -0.74581,0.63056 -0.40681,0.34578 -0.8543,0.71869 -0.44749,0.36613 -0.84752,0.68479 -0.39325,0.31867 -0.69835,0.55598 -0.30511,0.2373 -0.43393,0.32544 -0.42037,0.27799 -0.7865,0.42715 -0.35935,0.14916 -0.64411,0.14916 -0.23731,0 -0.40003,-0.0475 -0.16272,-0.0407 -0.26443,-0.11526 -0.1017,-0.0678 -0.14916,-0.16272 -0.0475,-0.0881 -0.0475,-0.18307 0,-0.2373 0.0881,-0.42715 0.0881,-0.18306 0.27121,-0.34578 0.18984,-0.16273 0.47461,-0.31189 0.29154,-0.15594 0.68479,-0.31867 0.25765,-0.1017 0.46105,-0.19662 0.21019,-0.0949 0.35935,-0.2034 0.15594,-0.11527 0.2373,-0.25765 0.0814,-0.14238 0.0814,-0.34579 0,-0.0475 -0.0678,-0.17628 -0.061,-0.12882 -0.16272,-0.29833 -0.1017,-0.1695 -0.23052,-0.36612 -0.12205,-0.20341 -0.24409,-0.39325 -0.12204,-0.19663 -0.23052,-0.36613 -0.10849,-0.1695 -0.16951,-0.28476 -0.27798,-0.5153 -0.27798,-1.05093 0,-0.23052 0.0407,-0.47461 0.0407,-0.24408 0.1356,-0.49495 0.0881,-0.31188 0.28477,-0.61021 0.2034,-0.29832 0.44749,-0.52885 0.24408,-0.2373 0.48817,-0.37969 0.25086,-0.14238 0.43392,-0.14238 0.24409,0 0.40003,0.0475 0.15595,0.0407 0.23731,0.1356 0.0881,0.0881 0.12204,0.23053 0.0339,0.1356 0.0339,0.33223 0,0.16272 -0.0814,0.31866 -0.0814,0.15594 -0.19663,0.29155 -0.11526,0.1356 -0.24408,0.25086 -0.12882,0.11527 -0.22374,0.20341 -0.14239,0.12882 -0.27121,0.24408 -0.12882,0.10848 -0.2034,0.18985 0.007,0.42714 0.21018,0.78649 0.1017,0.17629 0.25086,0.43393 0.15595,0.25765 0.31189,0.52885 0.16272,0.26443 0.30511,0.50851 0.14238,0.24409 0.22374,0.38647 0.1017,-0.0475 0.29155,-0.17628 0.19662,-0.13561 0.45427,-0.31867 0.25764,-0.18984 0.54919,-0.42037 0.29832,-0.23052 0.59665,-0.47461 0.29833,-0.24408 0.57631,-0.48139 0.27799,-0.24408 0.50173,-0.46105 0.18985,-0.18306 0.31189,-0.31188 0.12882,-0.13561 0.21696,-0.21697 0.0949,-0.0881 0.16273,-0.12882 0.0678,-0.0475 0.14916,-0.0475 0.0881,0 0.14238,0.0678 0.061,0.061 0.0949,0.14238 0.0339,0.0746 0.0475,0.14239 0.0136,0.0678 0.0136,0.0814 z"
         style="font-style:normal;font-variant:normal;font-weight:bold;font-stretch:normal;font-family:'Segoe Script';-inkscape-font-specification:'Segoe Script Bold';fill:none;stroke:#175c63;stroke-width:0.83002806;stroke-miterlimit:4;stroke-dasharray:none;stroke-opacity:1"
         id="path6195" />
      <path
         d="m 224.44136,247.21015 q 0,-0.061 -0.0271,-0.14238 -0.0203,-0.0814 -0.061,-0.14917 -0.0339,-0.0746 -0.0814,-0.12204 -0.0475,-0.0542 -0.0881,-0.0542 -0.44749,0 -0.8204,0.24408 -0.36613,0.23731 -0.76616,0.6509 -0.22374,0.22374 -0.48139,0.60343 -0.25086,0.37969 -0.46783,0.80684 -0.21696,0.42715 -0.35934,0.85429 -0.14239,0.42715 -0.14239,0.7526 0,0.0814 0.007,0.16272 0.0136,0.0746 0.0407,0.13561 0.0339,0.061 0.0882,0.1017 0.0542,0.0407 0.14238,0.0407 0.25764,0 0.58309,-0.16272 0.32545,-0.16951 0.65089,-0.43393 0.33223,-0.27121 0.63734,-0.617 0.31188,-0.35256 0.52207,-0.71869 0.25764,-0.44749 0.44071,-0.93566 0.18306,-0.48817 0.18306,-1.01702 z m 6.16315,0.69835 q 0,0.0814 -0.0339,0.19663 -0.0271,0.10848 -0.0746,0.22374 -0.0475,0.10848 -0.10848,0.21697 -0.0542,0.1017 -0.10848,0.17628 -0.0339,0.0475 -0.10848,0.1356 -0.0746,0.0814 -0.16951,0.18985 -0.0949,0.1017 -0.21696,0.22374 -0.11526,0.12204 -0.2373,0.24409 -0.39325,0.36612 -0.80006,0.72547 -0.40003,0.35257 -0.84074,0.63055 -0.44071,0.27121 -0.9221,0.44071 -0.48139,0.16951 -1.0238,0.16951 -0.23052,0 -0.46783,-0.1017 -0.2373,-0.10171 -0.44071,-0.27799 -0.2034,-0.17628 -0.35934,-0.42037 -0.14917,-0.25086 -0.21019,-0.53563 -0.12204,0.2034 -0.31867,0.44071 -0.19662,0.23052 -0.43392,0.46105 -0.23053,0.23052 -0.48139,0.44071 -0.25087,0.2034 -0.46783,0.35256 -0.14917,0.10171 -0.36613,0.21019 -0.21019,0.10848 -0.44749,0.2034 -0.23731,0.0881 -0.48139,0.14917 -0.23731,0.0542 -0.44071,0.0542 -0.32545,0 -0.56953,-0.18307 -0.24409,-0.18984 -0.40681,-0.46105 -0.15594,-0.2712 -0.2373,-0.57631 -0.0746,-0.3051 -0.0746,-0.54919 0,-0.44749 0.12883,-0.90854 0.1356,-0.46783 0.339,-0.90854 0.21019,-0.44071 0.46105,-0.84073 0.25765,-0.40003 0.50173,-0.71192 0.25765,-0.32544 0.617,-0.64411 0.35934,-0.32545 0.75259,-0.57631 0.39325,-0.25765 0.77294,-0.41359 0.38647,-0.15594 0.68479,-0.15594 0.16273,0 0.33223,0.0136 0.17628,0.007 0.34579,0.0271 0.1695,0.0203 0.32544,0.061 0.15595,0.0407 0.27799,0.1017 0.0814,0.0542 0.17628,0.19662 0.1017,0.13561 0.18307,0.29833 0.0881,0.15594 0.14916,0.31189 0.061,0.15594 0.061,0.24408 0,0.18984 -0.061,0.45427 -0.0542,0.25765 -0.12882,0.54241 -0.0678,0.28477 -0.12883,0.58309 -0.061,0.29833 -0.061,0.56953 0,0.18985 0.0542,0.38647 0.0542,0.19663 0.15595,0.35935 0.1017,0.15594 0.24408,0.25765 0.14238,0.1017 0.31867,0.1017 0.40003,0 0.79327,-0.14917 0.39325,-0.14916 0.7865,-0.4068 0.39325,-0.26443 0.7865,-0.617 0.39324,-0.35934 0.79327,-0.77293 0.0136,0 0.10848,-0.1017 0.0949,-0.10171 0.22375,-0.22375 0.1356,-0.12204 0.27799,-0.22374 0.14916,-0.10171 0.25764,-0.10171 0.19662,0 0.25765,0.11527 0.061,0.11526 0.061,0.35256 z"
         style="font-style:normal;font-variant:normal;font-weight:bold;font-stretch:normal;font-family:'Segoe Script';-inkscape-font-specification:'Segoe Script Bold';fill:none;stroke:#175c63;stroke-width:0.83002806;stroke-miterlimit:4;stroke-dasharray:none;stroke-opacity:1"
         id="path6197" />
      <path
         d="m 233.33013,248.85772 q 0.0542,-0.061 0.11527,-0.14916 0.0678,-0.0881 0.12882,-0.18984 0.0678,-0.10171 0.12882,-0.20341 0.0678,-0.10848 0.10848,-0.19662 -0.14238,-0.0949 -0.21018,-0.25087 -0.061,-0.16272 -0.061,-0.32544 0,-0.0678 0.007,-0.15595 0.0136,-0.0881 0.0271,-0.17628 0.0136,-0.0949 0.0203,-0.17628 0.0136,-0.0814 0.0136,-0.12205 0,-0.0881 -0.0542,-0.18306 -0.0542,-0.1017 -0.1356,-0.18306 -0.0746,-0.0814 -0.16951,-0.13561 -0.0881,-0.0542 -0.16272,-0.0542 -0.16272,0 -0.37969,0.19663 -0.21696,0.18984 -0.45427,0.48139 -0.2373,0.29154 -0.47461,0.63733 -0.23052,0.34579 -0.42715,0.64411 -0.21696,0.33901 -0.3729,0.63734 -0.15595,0.29154 -0.27121,0.52885 -0.35935,0.77293 -0.35935,1.22042 0,0.40681 0.14917,0.40681 0.1356,0 0.35256,-0.0949 0.21697,-0.0949 0.50851,-0.29155 0.30511,-0.21018 0.54919,-0.40003 0.25087,-0.19662 0.42715,-0.37968 0.37969,-0.38647 0.617,-0.6509 0.2373,-0.2712 0.37968,-0.43393 z m 7.01067,-1.08482 q 0,0.12204 -0.0339,0.24409 -0.0339,0.11526 -0.12883,0.26442 -0.0881,0.14238 -0.24408,0.33901 -0.14916,0.19662 -0.39325,0.48139 v -0.007 q -0.25086,0.29154 -0.53563,0.58309 -0.27799,0.28477 -0.60343,0.58987 -0.31189,0.29833 -0.62377,0.54919 -0.31189,0.25087 -0.60344,0.43393 -0.29154,0.18307 -0.54919,0.29155 -0.25764,0.1017 -0.46105,0.1017 -0.46783,0 -0.74581,-0.21696 -0.27799,-0.21697 -0.44749,-0.58988 -0.16273,-0.3729 -0.25087,-0.87463 -0.0881,-0.50851 -0.16272,-1.07805 -0.18306,0.27799 -0.39325,0.59666 -0.2034,0.31188 -0.43393,0.62377 -0.22374,0.31189 -0.47461,0.60343 -0.24408,0.29155 -0.50173,0.52885 -0.67801,0.61699 -1.39671,0.92888 -0.71191,0.30511 -1.47129,0.30511 -0.26442,0 -0.46105,-0.13561 -0.19662,-0.1356 -0.32544,-0.34578 -0.12883,-0.21697 -0.19663,-0.46783 -0.061,-0.25765 -0.061,-0.49495 0,-0.31867 0.0271,-0.54241 0.0271,-0.23053 0.0814,-0.38647 0.29155,-0.83396 0.64412,-1.57977 0.35934,-0.7526 0.88142,-1.47807 0.32544,-0.46105 0.64411,-0.81362 0.31867,-0.35257 0.67123,-0.58987 0.35935,-0.24409 0.77294,-0.36613 0.41359,-0.12204 0.92888,-0.12204 0.43393,0 0.71191,0.31866 0.27799,0.31867 0.39325,0.8882 0.0475,-0.25764 0.0881,-0.58309 0.0475,-0.32545 0.0881,-0.68479 0.0407,-0.35935 0.0746,-0.74582 0.0339,-0.38647 0.061,-0.76616 0.0339,-0.52885 0.0881,-0.89497 0.0542,-0.36613 0.1356,-0.50173 0.10848,-0.17629 0.27121,-0.29155 0.16272,-0.11526 0.44071,-0.11526 0.1695,0 0.31866,0.0542 0.15595,0.0475 0.27121,0.12882 0.12204,0.0746 0.18984,0.17629 0.0678,0.0949 0.0678,0.18984 0,0.0881 -0.0339,0.26442 -0.0339,0.17629 -0.0949,0.46783 -0.0542,0.28477 -0.1356,0.70514 -0.0814,0.41359 -0.18307,0.98312 0,0.0407 -0.0203,0.14916 -0.0136,0.10848 -0.0407,0.25087 -0.0203,0.1356 -0.0475,0.28476 -0.0203,0.14917 -0.0475,0.28477 -0.0203,0.12882 -0.0407,0.22374 -0.0136,0.0949 -0.0203,0.11527 -0.0814,0.52885 -0.1356,0.98312 -0.0542,0.45427 -0.0542,0.90853 0,0.20341 0,0.43393 0.007,0.23053 0.0136,0.46783 0.007,0.23053 0.0203,0.46105 0.0136,0.23053 0.0407,0.44071 0.007,0.0475 0.0339,0.11526 0.0271,0.061 0.0678,0.12205 0.0475,0.0542 0.10848,0.0949 0.061,0.0407 0.1356,0.0407 0.0949,0 0.20341,-0.0339 0.10848,-0.0407 0.22374,-0.0949 0.12205,-0.061 0.23053,-0.12205 0.11526,-0.0678 0.2034,-0.12882 0.35935,-0.2373 0.70514,-0.50851 0.35256,-0.27798 0.70513,-0.60343 0.34579,-0.31867 0.69158,-0.61699 0.34578,-0.30511 0.61021,-0.58988 0.1017,-0.1017 0.25764,-0.1017 0.10849,0 0.17629,0.1017 0.0746,0.10171 0.0746,0.35257 z"
         style="font-style:normal;font-variant:normal;font-weight:bold;font-stretch:normal;font-family:'Segoe Script';-inkscape-font-specification:'Segoe Script Bold';fill:none;stroke:#175c63;stroke-width:0.83002806;stroke-miterlimit:4;stroke-dasharray:none;stroke-opacity:1"
         id="path6199" />
    </g>
  </g>
</svg>
