<?xml version="1.0" encoding="UTF-8" standalone="no"?>
<svg
   xmlns:dc="http://purl.org/dc/elements/1.1/"
   xmlns:cc="http://creativecommons.org/ns#"
   xmlns:rdf="http://www.w3.org/1999/02/22-rdf-syntax-ns#"
   xmlns:svg="http://www.w3.org/2000/svg"
   xmlns="http://www.w3.org/2000/svg"
   xmlns:sodipodi="http://sodipodi.sourceforge.net/DTD/sodipodi-0.dtd"
   xmlns:inkscape="http://www.inkscape.org/namespaces/inkscape"
   id="master-artboard"
   viewBox="0 0 155.86755 21.95153"
   version="1.0"
   x="0px"
   y="0px"
   width="155.86755"
   height="21.95153"
   enable-background="new 0 0 1096 780"
   sodipodi:docname="hr.svg"
   inkscape:version="0.92.1 r15371">
  <metadata
     id="metadata4539">
    <rdf:RDF>
      <cc:Work
         rdf:about="">
        <dc:format>image/svg+xml</dc:format>
        <dc:type
           rdf:resource="http://purl.org/dc/dcmitype/StillImage" />
        <dc:title></dc:title>
      </cc:Work>
    </rdf:RDF>
  </metadata>
  <defs
     id="defs4537" />
  <sodipodi:namedview
     pagecolor="#ffffff"
     bordercolor="#666666"
     borderopacity="1"
     objecttolerance="10"
     gridtolerance="10"
     guidetolerance="10"
     inkscape:pageopacity="0"
     inkscape:pageshadow="2"
     inkscape:window-width="1366"
     inkscape:window-height="705"
     id="namedview4535"
     showgrid="false"
     inkscape:zoom="1.8134649"
     inkscape:cx="203.02861"
     inkscape:cy="50.975765"
     inkscape:window-x="-8"
     inkscape:window-y="-8"
     inkscape:window-maximized="1"
     inkscape:current-layer="master-artboard" />
  <rect
     id="ee-background"
     x="0"
     y="-80"
     width="507.86755"
     height="101.95153"
     style="fill:#ffffff;fill-opacity:0" />
  <g
     transform="matrix(0.14295418,0.00415353,-0.00441721,0.1344209,97.584425,-72.908611)"
     id="g4492">
    <g
       id="g4490">
      <path
         d="m 98.3,644.8 c -0.1,0 -0.2,0.1 -0.2,0.1 0.1,0 0.1,0 0.2,-0.1 M 187,624.3 c 0,0.1 0.1,0.1 0,0 0.1,0.1 0,0.1 0,0 0,0.1 0,0.1 0,0 m -2.3,-1.3 c 0.1,0.1 0.1,0.2 0.2,0.2 -0.1,0 -0.1,-0.1 -0.2,-0.2 m -46.1,-13.3 c 0.1,0.1 0.1,0.2 0.2,0.3 -0.1,-0.1 -0.1,-0.2 -0.2,-0.3 m 0.9,-6 c -1.2,0.2 -2.2,0.9 -3.2,1.6 -0.4,0.3 -0.9,0.6 -1.3,1 -1,0.7 -1.9,1.4 -2.8,2.2 -0.7,0.5 -1.3,1.1 -1.9,1.7 -0.9,0.9 -1.9,1.8 -2.8,2.7 -1.4,1.3 -2.7,2.8 -4,4.2 -0.5,0.5 -0.9,1.1 -1.4,1.6 -0.9,1 -1.7,2 -2.6,3 -1.3,1.5 -2.5,3.1 -3.8,4.6 -2.3,2.9 -4.7,5.7 -7.2,8.5 -2.8,3.1 -5.4,6.3 -8.6,8.9 -0.7,0.5 -1.3,0.9 -2.1,1.3 -1.1,0 -2.1,0 -3.2,0 -1,0 -1.9,0 -2.9,0 -1.9,0 -3.9,0 -5.8,0 -4.1,0 -8.2,0 -12.2,0 -2,0 -3.6,1.6 -3.6,3.6 0,2 1.6,3.6 3.6,3.6 4.1,0 8.3,0 12.4,0 2,0 4,0 6,0 0.9,0 1.9,0 2.8,0 1.6,0 3.3,0.1 4.9,-0.3 0.2,-0.1 0.3,-0.1 0.5,-0.2 0.5,-0.2 0.9,-0.4 1.4,-0.6 0.5,-0.2 1,-0.6 1.4,-0.9 1.1,-0.8 2.2,-1.7 3.2,-2.6 1.8,-1.6 3.4,-3.4 5,-5.2 1.5,-1.6 2.9,-3.3 4.4,-4.9 1.4,-1.5 2.7,-3.2 4,-4.8 1.2,-1.5 2.4,-2.9 3.6,-4.4 1,-1.3 2.1,-2.5 3.2,-3.8 0.7,-0.8 1.3,-1.6 2,-2.3 0.6,-0.6 1.2,-1.2 1.8,-1.9 1.3,-1.3 2.6,-2.7 3.9,-4 0.6,-0.5 1.1,-1.1 1.7,-1.6 0.7,-0.6 1.5,-1.2 2.2,-1.9 0.3,-0.2 0.5,-0.4 0.8,-0.6 0,0.8 -0.1,1.6 -0.2,2.4 -0.4,2.6 -1,5.1 -1.7,7.6 -0.7,2.6 -1.5,5.3 -2.4,7.8 -0.7,2.2 -1.5,4.3 -2.2,6.5 -0.5,1.5 -1,3 -1.4,4.5 -0.6,1.9 -1.2,3.7 -1.7,5.6 -1.1,4 -2.1,8 -3.2,12.1 -0.4,1.7 -0.9,3.4 -1.3,5 -0.2,1 -0.5,1.9 -0.7,2.9 -0.2,1.2 -0.5,2.4 -0.8,3.6 -0.1,0.6 -0.2,1.3 -0.2,2 0,0.8 0.3,1.7 0.6,2.4 0.2,0.6 0.5,1.1 0.9,1.6 0.6,0.6 1.7,1.2 2.5,1.1 0.7,-0.1 1.4,-0.1 2.1,-0.3 0.7,-0.1 1.3,-0.3 2,-0.6 1.1,-0.5 2.1,-1.2 3.1,-2 2.1,-1.7 4,-3.5 5.8,-5.4 1.8,-1.9 3.7,-3.8 5.6,-5.7 2.9,-3 5.8,-6 8.7,-9.1 2.5,-2.6 4.9,-5.3 7.3,-8 0.5,-0.6 1.1,-1.1 1.6,-1.6 1,-1 2.1,-2.1 3.1,-3.1 1.3,-1.2 2.6,-2.4 3.9,-3.6 2.4,-2.2 4.9,-4.4 7.4,-6.4 2.5,-2 4.9,-4 7.4,-6 0,0.7 -0.1,1.4 -0.2,2.1 -0.4,2.3 -0.8,4.6 -1.2,7 -0.3,2 -0.6,4 -0.8,5.9 -0.1,0.7 -0.1,1.3 -0.1,2 0,0.6 0.1,1.2 0.4,1.8 0.1,0.3 0.2,0.6 0.4,0.9 0.3,0.4 0.5,0.7 0.8,1 0.4,0.5 1.3,1 1.9,1.2 0.7,0.2 1.4,0.3 2.1,0.4 1.6,0.1 3.2,-0.1 4.8,-0.3 1.7,-0.2 3.4,-0.6 5.1,-1 1,-0.2 1.9,-0.5 2.9,-0.7 1.9,-0.4 3.8,-0.9 5.8,-1.2 2,-0.3 4.1,-0.6 6.1,-0.9 4,-0.6 8,-1.2 11.9,-1.8 1.9,-0.3 3.8,-0.5 5.8,-0.8 3.8,-0.4 7.5,-0.8 11.3,-1.2 3.9,-0.4 7.9,-1 11.8,-1.6 3.6,-0.5 7.3,-0.9 10.9,-1.1 4,-0.2 7.9,-0.5 11.9,-0.7 2,-0.1 4,-0.2 6.1,-0.3 2,-0.1 4.1,-0.2 6.1,-0.2 3.7,-0.1 7.3,-0.5 11,-0.6 12.3,-0.3 24.6,-0.3 36.9,-0.3 2,0 3.6,-1.6 3.6,-3.6 0,-2 -1.6,-3.6 -3.6,-3.6 -8.7,0 -17.4,0 -26.2,0.1 -3.7,0 -7.4,0.1 -11,0.2 -3.9,0.2 -7.7,0.5 -11.6,0.6 -3.6,0.1 -7.3,0.3 -10.9,0.5 -3.2,0.1 -6.4,0.4 -9.7,0.6 -3.1,0.2 -6.3,0.4 -9.4,0.8 -3.6,0.5 -7.3,1 -10.9,1.5 -3.6,0.5 -7.2,0.9 -10.8,1.3 -4.1,0.4 -8.3,0.8 -12.4,1.5 -3.8,0.6 -7.6,1.2 -11.4,1.8 -2,0.3 -4,0.6 -6,0.9 -1,0.2 -2,0.3 -2.9,0.5 -1.1,0.2 -2.2,0.5 -3.3,0.8 -0.9,0.2 -1.9,0.4 -2.8,0.7 -1.8,0.5 -3.7,0.9 -5.5,1.2 -0.6,0.1 -1.2,0.1 -1.8,0.1 0.1,-0.6 0.1,-1.2 0.2,-1.8 0.2,-1.6 0.4,-3.2 0.7,-4.7 0.2,-1.3 0.5,-2.6 0.7,-3.8 0.2,-1.4 0.4,-2.7 0.5,-4.1 0.1,-1.5 0,-3.1 -0.4,-4.6 -0.1,-0.6 -0.5,-1.3 -0.8,-1.9 -0.1,-0.1 -0.2,-0.3 -0.3,-0.4 -0.2,-0.4 -0.5,-0.8 -0.9,-1 -0.2,-0.2 -0.5,-0.4 -0.7,-0.6 -0.4,-0.2 -0.8,-0.3 -1.2,-0.5 -0.5,-0.2 -1.2,-0.2 -1.8,-0.1 -2.4,0.2 -4.2,1.9 -6,3.3 -1.5,1.2 -2.9,2.4 -4.4,3.6 -3,2.4 -6,4.7 -8.8,7.3 -0.9,0.9 -1.9,1.7 -2.8,2.6 -0.6,0.6 -1.3,1.1 -1.9,1.7 -1.6,1.6 -3.3,3.3 -4.9,4.9 -2,2 -3.9,4.2 -5.8,6.3 -1.9,2.1 -3.8,4.1 -5.7,6.1 -1.8,1.9 -3.7,3.9 -5.6,5.8 -1,1.1 -2.1,2.1 -3.1,3.2 -1.2,1.2 -2.3,2.4 -3.5,3.7 -0.8,0.8 -1.7,1.6 -2.5,2.4 0.1,-0.6 0.3,-1.1 0.4,-1.7 0.4,-1.8 0.9,-3.5 1.3,-5.2 1.1,-4 2.1,-8 3.2,-12 0.5,-1.8 1.1,-3.6 1.6,-5.5 0.5,-1.5 0.9,-3 1.4,-4.5 2.5,-7.2 5.1,-14.5 6.3,-22.1 0.2,-1.4 0.4,-2.8 0.4,-4.3 0.1,-1.3 0.1,-2.5 -0.1,-3.8 -0.1,-0.7 -0.3,-1.2 -0.6,-1.9 -0.2,-0.5 -0.6,-1.2 -1,-1.6 -0.5,-0.4 -1,-0.8 -1.5,-1.2 -0.4,-0.2 -0.8,-0.4 -1.3,-0.5 -0.3,-0.1 -0.6,-0.1 -1,-0.1 -0.1,-0.4 -0.4,-0.4 -0.8,-0.3"
         style="opacity:1;fill:#f4f4f4"
         id="path4486"
         inkscape:connector-curvature="0" />
      <path
         d="m 345.2,633 c -0.1,-1.4 -0.2,-2.7 -0.2,-4.1 -0.1,-2.5 -0.1,-5 -0.1,-7.5 0.4,0.3 0.9,0.5 1.3,0.7 1.4,0.7 2.7,1.5 4.1,2.1 0.9,0.4 1.9,0.9 2.8,1.3 -0.9,1.5 -2,2.9 -3,4.3 -0.8,1.1 -1.6,2.1 -2.4,3.2 -0.7,1 -1.4,2 -2.1,3 0,-0.2 -0.1,-0.4 -0.1,-0.6 -0.1,-0.7 -0.3,-1.6 -0.3,-2.4 m -5.9,-22.4 c -0.9,0.2 -1.7,0.8 -2.1,1.7 -0.5,0.8 -0.6,1.8 -0.4,2.8 0.2,0.8 0.7,1.4 1.3,1.9 -0.3,0.5 -0.4,1 -0.4,1.6 0,4.7 0,9.5 0.3,14.2 0.1,2 0.4,4.1 0.8,6.1 0.2,0.9 0.3,1.8 0.5,2.7 0.4,1.9 0.8,4.2 2.7,5.3 0.3,0.1 0.6,0.2 0.9,0.4 0.6,0.2 1.3,0.2 1.9,0 0.8,-0.1 1.3,-0.5 1.9,-1 0.4,-0.4 0.8,-0.8 1.2,-1.2 0.8,-0.9 1.5,-1.9 2.3,-2.9 0.5,-0.6 0.9,-1.3 1.3,-2 0.7,-0.9 1.3,-1.9 2,-2.8 1.1,-1.5 2.2,-3 3.3,-4.5 1.1,-1.4 2.1,-2.8 3,-4.4 0.7,-1.2 1,-2.5 1.1,-3.9 0,-0.5 -0.1,-1.1 -0.3,-1.6 -0.2,-0.6 -0.5,-1.1 -0.9,-1.6 -0.2,-0.2 -0.4,-0.4 -0.6,-0.6 -1.4,-1.2 -3.2,-1.9 -4.8,-2.7 -1.4,-0.7 -2.8,-1.4 -4.2,-2.2 -2.8,-1.5 -5.3,-3.3 -7.9,-5.1 -0.5,-0.3 -1.1,-0.5 -1.8,-0.5 -0.4,0.1 -0.8,0.2 -1.1,0.3"
         style="opacity:1;fill:#f4f4f4"
         id="path4488"
         inkscape:connector-curvature="0" />
    </g>
  </g>
  <g
     transform="matrix(-0.13992431,-0.003337,0.00354884,-0.13157189,54.460589,96.627849)"
     id="g4500">
    <g
       id="g4498">
      <path
         d="m 98.3,644.8 c -0.1,0 -0.2,0.1 -0.2,0.1 0.1,0 0.1,0 0.2,-0.1 M 187,624.3 c 0,0.1 0.1,0.1 0,0 0.1,0.1 0,0.1 0,0 0,0.1 0,0.1 0,0 m -2.3,-1.3 c 0.1,0.1 0.1,0.2 0.2,0.2 -0.1,0 -0.1,-0.1 -0.2,-0.2 m -46.1,-13.3 c 0.1,0.1 0.1,0.2 0.2,0.3 -0.1,-0.1 -0.1,-0.2 -0.2,-0.3 m 0.9,-6 c -1.2,0.2 -2.2,0.9 -3.2,1.6 -0.4,0.3 -0.9,0.6 -1.3,1 -1,0.7 -1.9,1.4 -2.8,2.2 -0.7,0.5 -1.3,1.1 -1.9,1.7 -0.9,0.9 -1.9,1.8 -2.8,2.7 -1.4,1.3 -2.7,2.8 -4,4.2 -0.5,0.5 -0.9,1.1 -1.4,1.6 -0.9,1 -1.7,2 -2.6,3 -1.3,1.5 -2.5,3.1 -3.8,4.6 -2.3,2.9 -4.7,5.7 -7.2,8.5 -2.8,3.1 -5.4,6.3 -8.6,8.9 -0.7,0.5 -1.3,0.9 -2.1,1.3 -1.1,0 -2.1,0 -3.2,0 -1,0 -1.9,0 -2.9,0 -1.9,0 -3.9,0 -5.8,0 -4.1,0 -8.2,0 -12.2,0 -2,0 -3.6,1.6 -3.6,3.6 0,2 1.6,3.6 3.6,3.6 4.1,0 8.3,0 12.4,0 2,0 4,0 6,0 0.9,0 1.9,0 2.8,0 1.6,0 3.3,0.1 4.9,-0.3 0.2,-0.1 0.3,-0.1 0.5,-0.2 0.5,-0.2 0.9,-0.4 1.4,-0.6 0.5,-0.2 1,-0.6 1.4,-0.9 1.1,-0.8 2.2,-1.7 3.2,-2.6 1.8,-1.6 3.4,-3.4 5,-5.2 1.5,-1.6 2.9,-3.3 4.4,-4.9 1.4,-1.5 2.7,-3.2 4,-4.8 1.2,-1.5 2.4,-2.9 3.6,-4.4 1,-1.3 2.1,-2.5 3.2,-3.8 0.7,-0.8 1.3,-1.6 2,-2.3 0.6,-0.6 1.2,-1.2 1.8,-1.9 1.3,-1.3 2.6,-2.7 3.9,-4 0.6,-0.5 1.1,-1.1 1.7,-1.6 0.7,-0.6 1.5,-1.2 2.2,-1.9 0.3,-0.2 0.5,-0.4 0.8,-0.6 0,0.8 -0.1,1.6 -0.2,2.4 -0.4,2.6 -1,5.1 -1.7,7.6 -0.7,2.6 -1.5,5.3 -2.4,7.8 -0.7,2.2 -1.5,4.3 -2.2,6.5 -0.5,1.5 -1,3 -1.4,4.5 -0.6,1.9 -1.2,3.7 -1.7,5.6 -1.1,4 -2.1,8 -3.2,12.1 -0.4,1.7 -0.9,3.4 -1.3,5 -0.2,1 -0.5,1.9 -0.7,2.9 -0.2,1.2 -0.5,2.4 -0.8,3.6 -0.1,0.6 -0.2,1.3 -0.2,2 0,0.8 0.3,1.7 0.6,2.4 0.2,0.6 0.5,1.1 0.9,1.6 0.6,0.6 1.7,1.2 2.5,1.1 0.7,-0.1 1.4,-0.1 2.1,-0.3 0.7,-0.1 1.3,-0.3 2,-0.6 1.1,-0.5 2.1,-1.2 3.1,-2 2.1,-1.7 4,-3.5 5.8,-5.4 1.8,-1.9 3.7,-3.8 5.6,-5.7 2.9,-3 5.8,-6 8.7,-9.1 2.5,-2.6 4.9,-5.3 7.3,-8 0.5,-0.6 1.1,-1.1 1.6,-1.6 1,-1 2.1,-2.1 3.1,-3.1 1.3,-1.2 2.6,-2.4 3.9,-3.6 2.4,-2.2 4.9,-4.4 7.4,-6.4 2.5,-2 4.9,-4 7.4,-6 0,0.7 -0.1,1.4 -0.2,2.1 -0.4,2.3 -0.8,4.6 -1.2,7 -0.3,2 -0.6,4 -0.8,5.9 -0.1,0.7 -0.1,1.3 -0.1,2 0,0.6 0.1,1.2 0.4,1.8 0.1,0.3 0.2,0.6 0.4,0.9 0.3,0.4 0.5,0.7 0.8,1 0.4,0.5 1.3,1 1.9,1.2 0.7,0.2 1.4,0.3 2.1,0.4 1.6,0.1 3.2,-0.1 4.8,-0.3 1.7,-0.2 3.4,-0.6 5.1,-1 1,-0.2 1.9,-0.5 2.9,-0.7 1.9,-0.4 3.8,-0.9 5.8,-1.2 2,-0.3 4.1,-0.6 6.1,-0.9 4,-0.6 8,-1.2 11.9,-1.8 1.9,-0.3 3.8,-0.5 5.8,-0.8 3.8,-0.4 7.5,-0.8 11.3,-1.2 3.9,-0.4 7.9,-1 11.8,-1.6 3.6,-0.5 7.3,-0.9 10.9,-1.1 4,-0.2 7.9,-0.5 11.9,-0.7 2,-0.1 4,-0.2 6.1,-0.3 2,-0.1 4.1,-0.2 6.1,-0.2 3.7,-0.1 7.3,-0.5 11,-0.6 12.3,-0.3 24.6,-0.3 36.9,-0.3 2,0 3.6,-1.6 3.6,-3.6 0,-2 -1.6,-3.6 -3.6,-3.6 -8.7,0 -17.4,0 -26.2,0.1 -3.7,0 -7.4,0.1 -11,0.2 -3.9,0.2 -7.7,0.5 -11.6,0.6 -3.6,0.1 -7.3,0.3 -10.9,0.5 -3.2,0.1 -6.4,0.4 -9.7,0.6 -3.1,0.2 -6.3,0.4 -9.4,0.8 -3.6,0.5 -7.3,1 -10.9,1.5 -3.6,0.5 -7.2,0.9 -10.8,1.3 -4.1,0.4 -8.3,0.8 -12.4,1.5 -3.8,0.6 -7.6,1.2 -11.4,1.8 -2,0.3 -4,0.6 -6,0.9 -1,0.2 -2,0.3 -2.9,0.5 -1.1,0.2 -2.2,0.5 -3.3,0.8 -0.9,0.2 -1.9,0.4 -2.8,0.7 -1.8,0.5 -3.7,0.9 -5.5,1.2 -0.6,0.1 -1.2,0.1 -1.8,0.1 0.1,-0.6 0.1,-1.2 0.2,-1.8 0.2,-1.6 0.4,-3.2 0.7,-4.7 0.2,-1.3 0.5,-2.6 0.7,-3.8 0.2,-1.4 0.4,-2.7 0.5,-4.1 0.1,-1.5 0,-3.1 -0.4,-4.6 -0.1,-0.6 -0.5,-1.3 -0.8,-1.9 -0.1,-0.1 -0.2,-0.3 -0.3,-0.4 -0.2,-0.4 -0.5,-0.8 -0.9,-1 -0.2,-0.2 -0.5,-0.4 -0.7,-0.6 -0.4,-0.2 -0.8,-0.3 -1.2,-0.5 -0.5,-0.2 -1.2,-0.2 -1.8,-0.1 -2.4,0.2 -4.2,1.9 -6,3.3 -1.5,1.2 -2.9,2.4 -4.4,3.6 -3,2.4 -6,4.7 -8.8,7.3 -0.9,0.9 -1.9,1.7 -2.8,2.6 -0.6,0.6 -1.3,1.1 -1.9,1.7 -1.6,1.6 -3.3,3.3 -4.9,4.9 -2,2 -3.9,4.2 -5.8,6.3 -1.9,2.1 -3.8,4.1 -5.7,6.1 -1.8,1.9 -3.7,3.9 -5.6,5.8 -1,1.1 -2.1,2.1 -3.1,3.2 -1.2,1.2 -2.3,2.4 -3.5,3.7 -0.8,0.8 -1.7,1.6 -2.5,2.4 0.1,-0.6 0.3,-1.1 0.4,-1.7 0.4,-1.8 0.9,-3.5 1.3,-5.2 1.1,-4 2.1,-8 3.2,-12 0.5,-1.8 1.1,-3.6 1.6,-5.5 0.5,-1.5 0.9,-3 1.4,-4.5 2.5,-7.2 5.1,-14.5 6.3,-22.1 0.2,-1.4 0.4,-2.8 0.4,-4.3 0.1,-1.3 0.1,-2.5 -0.1,-3.8 -0.1,-0.7 -0.3,-1.2 -0.6,-1.9 -0.2,-0.5 -0.6,-1.2 -1,-1.6 -0.5,-0.4 -1,-0.8 -1.5,-1.2 -0.4,-0.2 -0.8,-0.4 -1.3,-0.5 -0.3,-0.1 -0.6,-0.1 -1,-0.1 -0.1,-0.4 -0.4,-0.4 -0.8,-0.3"
         style="opacity:1;fill:#f4f4f4"
         id="path4494"
         inkscape:connector-curvature="0" />
      <path
         d="m 345.2,633 c -0.1,-1.4 -0.2,-2.7 -0.2,-4.1 -0.1,-2.5 -0.1,-5 -0.1,-7.5 0.4,0.3 0.9,0.5 1.3,0.7 1.4,0.7 2.7,1.5 4.1,2.1 0.9,0.4 1.9,0.9 2.8,1.3 -0.9,1.5 -2,2.9 -3,4.3 -0.8,1.1 -1.6,2.1 -2.4,3.2 -0.7,1 -1.4,2 -2.1,3 0,-0.2 -0.1,-0.4 -0.1,-0.6 -0.1,-0.7 -0.3,-1.6 -0.3,-2.4 m -5.9,-22.4 c -0.9,0.2 -1.7,0.8 -2.1,1.7 -0.5,0.8 -0.6,1.8 -0.4,2.8 0.2,0.8 0.7,1.4 1.3,1.9 -0.3,0.5 -0.4,1 -0.4,1.6 0,4.7 0,9.5 0.3,14.2 0.1,2 0.4,4.1 0.8,6.1 0.2,0.9 0.3,1.8 0.5,2.7 0.4,1.9 0.8,4.2 2.7,5.3 0.3,0.1 0.6,0.2 0.9,0.4 0.6,0.2 1.3,0.2 1.9,0 0.8,-0.1 1.3,-0.5 1.9,-1 0.4,-0.4 0.8,-0.8 1.2,-1.2 0.8,-0.9 1.5,-1.9 2.3,-2.9 0.5,-0.6 0.9,-1.3 1.3,-2 0.7,-0.9 1.3,-1.9 2,-2.8 1.1,-1.5 2.2,-3 3.3,-4.5 1.1,-1.4 2.1,-2.8 3,-4.4 0.7,-1.2 1,-2.5 1.1,-3.9 0,-0.5 -0.1,-1.1 -0.3,-1.6 -0.2,-0.6 -0.5,-1.1 -0.9,-1.6 -0.2,-0.2 -0.4,-0.4 -0.6,-0.6 -1.4,-1.2 -3.2,-1.9 -4.8,-2.7 -1.4,-0.7 -2.8,-1.4 -4.2,-2.2 -2.8,-1.5 -5.3,-3.3 -7.9,-5.1 -0.5,-0.3 -1.1,-0.5 -1.8,-0.5 -0.4,0.1 -0.8,0.2 -1.1,0.3"
         style="opacity:1;fill:#f4f4f4"
         id="path4496"
         inkscape:connector-curvature="0" />
    </g>
  </g>
  <g
     transform="matrix(0.06039888,0.0017549,-0.0018663,0.05679352,13.901818,-24.16808)"
     id="g4511">
    <g
       id="g4509">
      <linearGradient
         id="SVGID_5_"
         gradientUnits="userSpaceOnUse"
         x1="568.07251"
         y1="593.86639"
         x2="890.97058"
         y2="593.86639">
        <stop
           offset="0"
           style="stop-color:#9F0B10"
           id="stop4502" />
        <stop
           offset="1"
           style="stop-color:#ED1C24"
           id="stop4504" />
      </linearGradient>
      <path
         class="st4"
         d="m 882.3,588.5 c 0.6,17.2 -8.6,29.1 -26.9,24.6 -24.7,-6 -46.3,-25.2 -65.7,-40.5 -23.9,-18.9 -50.2,-34.5 -77.9,-47.1 -34.6,-15.7 -77.4,-26.9 -114.2,-12.3 -30.4,12 -39.3,48.6 -29.9,77.4 9.5,29.4 41.3,44.4 70.3,43.9 24,-0.4 53.8,-18.9 53.5,-45.4 -0.3,-22.9 -28.6,-32.4 -47.1,-33.9 -26.1,-2.1 -54.3,10.4 -67.4,33.6 -12.8,22.6 -19.4,58.2 -3,80.6 11.2,15.3 32.8,13.5 48.1,7 23.9,-10.1 32.8,-34.1 32.8,-58.3 0.1,-25.5 -19.8,-36.7 -42.7,-35.9 -7.3,0.2 -9.7,9.8 -1.1,9.5 49,-1.6 35.2,75 -5.7,80.1 -20,2.5 -27.1,-18.4 -27.8,-34.4 -1,-23.1 7,-47.6 25.4,-62.2 18.9,-14.9 75.2,-17.1 75.6,17.3 0.2,19.8 -23,31.2 -39.5,32.5 -21.3,1.7 -41.8,-10.5 -53.6,-27.5 -12,-17.3 -11.1,-42 -1.5,-60 11.9,-22.5 42.4,-22.9 64.1,-20.3 63.9,7.7 112.1,51.3 162.9,86 19.2,13.1 49.6,30.4 71.9,14.3 8.9,-6.4 12.8,-19.4 12.4,-30 -0.3,-6.7 -13.2,-4.8 -13,1 z"
         style="opacity:1;fill:#f4f4f4"
         id="path4507"
         inkscape:connector-curvature="0" />
    </g>
  </g>
  <g
     transform="matrix(-0.07147934,-2.5016885e-4,2.6605004e-4,-0.06721256,145.40157,53.306526)"
     id="g4522">
    <g
       id="g4520">
      <linearGradient
         id="gradient-1"
         gradientUnits="userSpaceOnUse"
         x1="568.07251"
         y1="593.86639"
         x2="890.97058"
         y2="593.86639">
        <stop
           offset="0"
           style="stop-color:#9F0B10"
           id="stop4513" />
        <stop
           offset="1"
           style="stop-color:#ED1C24"
           id="stop4515" />
      </linearGradient>
      <path
         class="st4"
         d="m 882.3,588.5 c 0.6,17.2 -8.6,29.1 -26.9,24.6 -24.7,-6 -46.3,-25.2 -65.7,-40.5 -23.9,-18.9 -50.2,-34.5 -77.9,-47.1 -34.6,-15.7 -77.4,-26.9 -114.2,-12.3 -30.4,12 -39.3,48.6 -29.9,77.4 9.5,29.4 41.3,44.4 70.3,43.9 24,-0.4 53.8,-18.9 53.5,-45.4 -0.3,-22.9 -28.6,-32.4 -47.1,-33.9 -26.1,-2.1 -54.3,10.4 -67.4,33.6 -12.8,22.6 -19.4,58.2 -3,80.6 11.2,15.3 32.8,13.5 48.1,7 23.9,-10.1 32.8,-34.1 32.8,-58.3 0.1,-25.5 -19.8,-36.7 -42.7,-35.9 -7.3,0.2 -9.7,9.8 -1.1,9.5 49,-1.6 35.2,75 -5.7,80.1 -20,2.5 -27.1,-18.4 -27.8,-34.4 -1,-23.1 7,-47.6 25.4,-62.2 18.9,-14.9 75.2,-17.1 75.6,17.3 0.2,19.8 -23,31.2 -39.5,32.5 -21.3,1.7 -41.8,-10.5 -53.6,-27.5 -12,-17.3 -11.1,-42 -1.5,-60 11.9,-22.5 42.4,-22.9 64.1,-20.3 63.9,7.7 112.1,51.3 162.9,86 19.2,13.1 49.6,30.4 71.9,14.3 8.9,-6.4 12.8,-19.4 12.4,-30 -0.3,-6.7 -13.2,-4.8 -13,1 z"
         style="opacity:1;fill:#f4f4f4"
         id="path4518"
         inkscape:connector-curvature="0" />
    </g>
  </g>
  <g
     transform="matrix(0.14579063,0.00423595,-0.00450485,0.13708804,3.2999021,-72.246231)"
     id="g4532">
    <g
       id="g4530">
      <path
         class="st1"
         d="m 507.7,548.5 c -5.3,-6.6 -12.3,-11.5 -19.4,-14.4 -0.9,-0.4 -1.8,-0.7 -2.7,-1 l -1.3,-0.5 -0.8,-0.3 -0.6,-0.2 -1.2,-0.3 -1.5,-0.4 c -1,-0.2 -1.9,-0.4 -2.8,-0.5 -3.7,-0.5 -7.3,-0.6 -10.7,-0.2 -6.8,0.7 -12.7,3.1 -17.3,5.7 -4.6,2.7 -7.9,6 -10.1,9 -2.3,3 -3.5,5.7 -4.2,7.5 -0.4,0.9 -0.6,1.7 -0.7,2.2 0,0.2 -0.1,0.3 -0.1,0.4 -1,2.2 -1.6,4.6 -1.6,7.1 -0.2,9.9 7.6,18 17.5,18.3 9.9,0.2 18,-7.6 18.3,-17.5 0.2,-9.4 -6.8,-17.2 -16,-18.2 0.5,-0.2 0.9,-0.4 1.4,-0.7 3.9,-1.8 8.6,-3.2 13.7,-3.3 5.1,-0.1 10.5,1.1 15.8,3.8 5.4,2.6 10.3,6.4 14.3,11.4 2,2.5 3.7,5.3 5.2,8.3 1.4,3 2.6,6.2 3.5,9.6 1.7,6.7 2.1,14 1.3,21.2 -0.4,3.6 -1.1,7.2 -2.1,10.7 -1,3.6 -2.2,6.8 -3.9,10 -1.6,3.2 -3.5,6.2 -5.6,9 -2.1,2.8 -4.5,5.4 -7.1,7.7 -5.1,4.7 -10.8,8.5 -16.7,11.4 -5.8,2.9 -11.7,4.9 -17.4,6.2 -5.6,1.3 -10.9,1.9 -15.7,2.1 -4.7,0.2 -8.9,-0.1 -12.3,-0.4 -3.4,-0.4 -6.1,-0.9 -7.9,-1.3 -1.8,-0.4 -2.8,-0.6 -2.8,-0.6 0,0 0.9,0.4 2.6,1.1 1.7,0.7 4.3,1.6 7.7,2.6 3.4,0.9 7.6,1.8 12.5,2.2 4.9,0.4 10.6,0.5 16.7,-0.2 6.1,-0.8 12.7,-2.1 19.4,-4.8 3.3,-1.3 6.7,-2.8 10,-4.7 1.7,-0.9 3.3,-1.9 4.9,-3 1.6,-1.1 3.2,-2.2 4.7,-3.5 6.2,-4.9 11.9,-11.2 16.1,-18.6 2.1,-3.6 3.9,-7.7 5.2,-11.7 1.4,-4.1 2.4,-8.3 3.1,-12.5 1.4,-8.5 1.1,-17.3 -0.8,-25.8 -1.5,-8.3 -5.2,-16.4 -10.6,-22.9 z"
         style="opacity:1;fill:#175c63"
         id="path4524"
         inkscape:connector-curvature="0" />
      <path
         d="m 549.6,577.20001 a 11.1,11.1 0 0 1 -11.1,11.1 11.1,11.1 0 0 1 -11.1,-11.1 11.1,11.1 0 0 1 11.1,-11.1 11.1,11.1 0 0 1 11.1,11.1 z"
         class="st1"
         style="opacity:1;fill:#175c63"
         id="path4526"
         inkscape:connector-curvature="0" />
      <path
         d="m 549.6,613.40002 a 11.1,11.1 0 0 1 -11.1,11.10001 11.1,11.1 0 0 1 -11.1,-11.10001 11.1,11.1 0 0 1 11.1,-11.1 11.1,11.1 0 0 1 11.1,11.1 z"
         class="st1"
         style="opacity:1;fill:#175c63"
         id="path4528"
         inkscape:connector-curvature="0" />
    </g>
  </g>
</svg>
