<?xml version="1.0" encoding="utf-8"?>
<svg id="master-artboard" viewBox="0 0 507.8675537109375 101.95153045654297" version="1.0" xmlns="http://www.w3.org/2000/svg" x="0px" y="0px" width="507.8675537109375px" height="101.95153045654297px" enable-background="new 0 0 1096 780"><rect id="ee-background" x="0" y="0" width="507.8675537109375" height="101.95153045654297" style="fill: white; fill-opacity: 0; pointer-events: none;"/>


<g transform="matrix(0.4751580894965458, 0.014682133827172709, -0.014682133827172709, 0.4751580894965458, 327.0927060682204, -246.8333598615063)"><g transform="matrix(1, 0, 0, 1, 0, 0)">
		<path d="M98.3,644.8c-0.1,0-0.2,0.1-0.2,0.1C98.2,644.9,98.2,644.9,98.3,644.8 M187,624.3C187,624.4,187.1,624.4,187,624.3&#10;&#9;&#9;&#9;C187.1,624.4,187,624.4,187,624.3C187,624.4,187,624.4,187,624.3 M184.7,623c0.1,0.1,0.1,0.2,0.2,0.2&#10;&#9;&#9;&#9;C184.8,623.2,184.8,623.1,184.7,623 M138.6,609.7c0.1,0.1,0.1,0.2,0.2,0.3C138.7,609.9,138.7,609.8,138.6,609.7 M139.5,603.7&#10;&#9;&#9;&#9;c-1.2,0.2-2.2,0.9-3.2,1.6c-0.4,0.3-0.9,0.6-1.3,1c-1,0.7-1.9,1.4-2.8,2.2c-0.7,0.5-1.3,1.1-1.9,1.7c-0.9,0.9-1.9,1.8-2.8,2.7&#10;&#9;&#9;&#9;c-1.4,1.3-2.7,2.8-4,4.2c-0.5,0.5-0.9,1.1-1.4,1.6c-0.9,1-1.7,2-2.6,3c-1.3,1.5-2.5,3.1-3.8,4.6c-2.3,2.9-4.7,5.7-7.2,8.5&#10;&#9;&#9;&#9;c-2.8,3.1-5.4,6.3-8.6,8.9c-0.7,0.5-1.3,0.9-2.1,1.3c-1.1,0-2.1,0-3.2,0c-1,0-1.9,0-2.9,0c-1.9,0-3.9,0-5.8,0c-4.1,0-8.2,0-12.2,0&#10;&#9;&#9;&#9;c-2,0-3.6,1.6-3.6,3.6c0,2,1.6,3.6,3.6,3.6c4.1,0,8.3,0,12.4,0c2,0,4,0,6,0c0.9,0,1.9,0,2.8,0c1.6,0,3.3,0.1,4.9-0.3&#10;&#9;&#9;&#9;c0.2-0.1,0.3-0.1,0.5-0.2c0.5-0.2,0.9-0.4,1.4-0.6c0.5-0.2,1-0.6,1.4-0.9c1.1-0.8,2.2-1.7,3.2-2.6c1.8-1.6,3.4-3.4,5-5.2&#10;&#9;&#9;&#9;c1.5-1.6,2.9-3.3,4.4-4.9c1.4-1.5,2.7-3.2,4-4.8c1.2-1.5,2.4-2.9,3.6-4.4c1-1.3,2.1-2.5,3.2-3.8c0.7-0.8,1.3-1.6,2-2.3&#10;&#9;&#9;&#9;c0.6-0.6,1.2-1.2,1.8-1.9c1.3-1.3,2.6-2.7,3.9-4c0.6-0.5,1.1-1.1,1.7-1.6c0.7-0.6,1.5-1.2,2.2-1.9c0.3-0.2,0.5-0.4,0.8-0.6&#10;&#9;&#9;&#9;c0,0.8-0.1,1.6-0.2,2.4c-0.4,2.6-1,5.1-1.7,7.6c-0.7,2.6-1.5,5.3-2.4,7.8c-0.7,2.2-1.5,4.3-2.2,6.5c-0.5,1.5-1,3-1.4,4.5&#10;&#9;&#9;&#9;c-0.6,1.9-1.2,3.7-1.7,5.6c-1.1,4-2.1,8-3.2,12.1c-0.4,1.7-0.9,3.4-1.3,5c-0.2,1-0.5,1.9-0.7,2.9c-0.2,1.2-0.5,2.4-0.8,3.6&#10;&#9;&#9;&#9;c-0.1,0.6-0.2,1.3-0.2,2c0,0.8,0.3,1.7,0.6,2.4c0.2,0.6,0.5,1.1,0.9,1.6c0.6,0.6,1.7,1.2,2.5,1.1c0.7-0.1,1.4-0.1,2.1-0.3&#10;&#9;&#9;&#9;c0.7-0.1,1.3-0.3,2-0.6c1.1-0.5,2.1-1.2,3.1-2c2.1-1.7,4-3.5,5.8-5.4c1.8-1.9,3.7-3.8,5.6-5.7c2.9-3,5.8-6,8.7-9.1&#10;&#9;&#9;&#9;c2.5-2.6,4.9-5.3,7.3-8c0.5-0.6,1.1-1.1,1.6-1.6c1-1,2.1-2.1,3.1-3.1c1.3-1.2,2.6-2.4,3.9-3.6c2.4-2.2,4.9-4.4,7.4-6.4&#10;&#9;&#9;&#9;c2.5-2,4.9-4,7.4-6c0,0.7-0.1,1.4-0.2,2.1c-0.4,2.3-0.8,4.6-1.2,7c-0.3,2-0.6,4-0.8,5.9c-0.1,0.7-0.1,1.3-0.1,2&#10;&#9;&#9;&#9;c0,0.6,0.1,1.2,0.4,1.8c0.1,0.3,0.2,0.6,0.4,0.9c0.3,0.4,0.5,0.7,0.8,1c0.4,0.5,1.3,1,1.9,1.2c0.7,0.2,1.4,0.3,2.1,0.4&#10;&#9;&#9;&#9;c1.6,0.1,3.2-0.1,4.8-0.3c1.7-0.2,3.4-0.6,5.1-1c1-0.2,1.9-0.5,2.9-0.7c1.9-0.4,3.8-0.9,5.8-1.2c2-0.3,4.1-0.6,6.1-0.9&#10;&#9;&#9;&#9;c4-0.6,8-1.2,11.9-1.8c1.9-0.3,3.8-0.5,5.8-0.8c3.8-0.4,7.5-0.8,11.3-1.2c3.9-0.4,7.9-1,11.8-1.6c3.6-0.5,7.3-0.9,10.9-1.1&#10;&#9;&#9;&#9;c4-0.2,7.9-0.5,11.9-0.7c2-0.1,4-0.2,6.1-0.3c2-0.1,4.1-0.2,6.1-0.2c3.7-0.1,7.3-0.5,11-0.6c12.3-0.3,24.6-0.3,36.9-0.3&#10;&#9;&#9;&#9;c2,0,3.6-1.6,3.6-3.6s-1.6-3.6-3.6-3.6c-8.7,0-17.4,0-26.2,0.1c-3.7,0-7.4,0.1-11,0.2c-3.9,0.2-7.7,0.5-11.6,0.6&#10;&#9;&#9;&#9;c-3.6,0.1-7.3,0.3-10.9,0.5c-3.2,0.1-6.4,0.4-9.7,0.6c-3.1,0.2-6.3,0.4-9.4,0.8c-3.6,0.5-7.3,1-10.9,1.5&#10;&#9;&#9;&#9;c-3.6,0.5-7.2,0.9-10.8,1.3c-4.1,0.4-8.3,0.8-12.4,1.5c-3.8,0.6-7.6,1.2-11.4,1.8c-2,0.3-4,0.6-6,0.9c-1,0.2-2,0.3-2.9,0.5&#10;&#9;&#9;&#9;c-1.1,0.2-2.2,0.5-3.3,0.8c-0.9,0.2-1.9,0.4-2.8,0.7c-1.8,0.5-3.7,0.9-5.5,1.2c-0.6,0.1-1.2,0.1-1.8,0.1c0.1-0.6,0.1-1.2,0.2-1.8&#10;&#9;&#9;&#9;c0.2-1.6,0.4-3.2,0.7-4.7c0.2-1.3,0.5-2.6,0.7-3.8c0.2-1.4,0.4-2.7,0.5-4.1c0.1-1.5,0-3.1-0.4-4.6c-0.1-0.6-0.5-1.3-0.8-1.9&#10;&#9;&#9;&#9;c-0.1-0.1-0.2-0.3-0.3-0.4c-0.2-0.4-0.5-0.8-0.9-1c-0.2-0.2-0.5-0.4-0.7-0.6c-0.4-0.2-0.8-0.3-1.2-0.5c-0.5-0.2-1.2-0.2-1.8-0.1&#10;&#9;&#9;&#9;c-2.4,0.2-4.2,1.9-6,3.3c-1.5,1.2-2.9,2.4-4.4,3.6c-3,2.4-6,4.7-8.8,7.3c-0.9,0.9-1.9,1.7-2.8,2.6c-0.6,0.6-1.3,1.1-1.9,1.7&#10;&#9;&#9;&#9;c-1.6,1.6-3.3,3.3-4.9,4.9c-2,2-3.9,4.2-5.8,6.3c-1.9,2.1-3.8,4.1-5.7,6.1c-1.8,1.9-3.7,3.9-5.6,5.8c-1,1.1-2.1,2.1-3.1,3.2&#10;&#9;&#9;&#9;c-1.2,1.2-2.3,2.4-3.5,3.7c-0.8,0.8-1.7,1.6-2.5,2.4c0.1-0.6,0.3-1.1,0.4-1.7c0.4-1.8,0.9-3.5,1.3-5.2c1.1-4,2.1-8,3.2-12&#10;&#9;&#9;&#9;c0.5-1.8,1.1-3.6,1.6-5.5c0.5-1.5,0.9-3,1.4-4.5c2.5-7.2,5.1-14.5,6.3-22.1c0.2-1.4,0.4-2.8,0.4-4.3c0.1-1.3,0.1-2.5-0.1-3.8&#10;&#9;&#9;&#9;c-0.1-0.7-0.3-1.2-0.6-1.9c-0.2-0.5-0.6-1.2-1-1.6c-0.5-0.4-1-0.8-1.5-1.2c-0.4-0.2-0.8-0.4-1.3-0.5c-0.3-0.1-0.6-0.1-1-0.1&#10;&#9;&#9;&#9;C140.2,603.6,139.9,603.6,139.5,603.7" style="fill: rgb(244, 244, 244); opacity: 1;"/>
		<path d="M345.2,633c-0.1-1.4-0.2-2.7-0.2-4.1c-0.1-2.5-0.1-5-0.1-7.5c0.4,0.3,0.9,0.5,1.3,0.7c1.4,0.7,2.7,1.5,4.1,2.1&#10;&#9;&#9;&#9;c0.9,0.4,1.9,0.9,2.8,1.3c-0.9,1.5-2,2.9-3,4.3c-0.8,1.1-1.6,2.1-2.4,3.2c-0.7,1-1.4,2-2.1,3c0-0.2-0.1-0.4-0.1-0.6&#10;&#9;&#9;&#9;C345.4,634.7,345.2,633.8,345.2,633 M339.3,610.6c-0.9,0.2-1.7,0.8-2.1,1.7c-0.5,0.8-0.6,1.8-0.4,2.8c0.2,0.8,0.7,1.4,1.3,1.9&#10;&#9;&#9;&#9;c-0.3,0.5-0.4,1-0.4,1.6c0,4.7,0,9.5,0.3,14.2c0.1,2,0.4,4.1,0.8,6.1c0.2,0.9,0.3,1.8,0.5,2.7c0.4,1.9,0.8,4.2,2.7,5.3&#10;&#9;&#9;&#9;c0.3,0.1,0.6,0.2,0.9,0.4c0.6,0.2,1.3,0.2,1.9,0c0.8-0.1,1.3-0.5,1.9-1c0.4-0.4,0.8-0.8,1.2-1.2c0.8-0.9,1.5-1.9,2.3-2.9&#10;&#9;&#9;&#9;c0.5-0.6,0.9-1.3,1.3-2c0.7-0.9,1.3-1.9,2-2.8c1.1-1.5,2.2-3,3.3-4.5c1.1-1.4,2.1-2.8,3-4.4c0.7-1.2,1-2.5,1.1-3.9&#10;&#9;&#9;&#9;c0-0.5-0.1-1.1-0.3-1.6c-0.2-0.6-0.5-1.1-0.9-1.6c-0.2-0.2-0.4-0.4-0.6-0.6c-1.4-1.2-3.2-1.9-4.8-2.7c-1.4-0.7-2.8-1.4-4.2-2.2&#10;&#9;&#9;&#9;c-2.8-1.5-5.3-3.3-7.9-5.1c-0.5-0.3-1.1-0.5-1.8-0.5C340,610.4,339.6,610.5,339.3,610.6" style="fill: rgb(244, 244, 244); opacity: 1;"/>
	</g></g><g transform="matrix(-0.4650872700403735, -0.011795807893652943, 0.011795807893652943, -0.4650872700403735, 183.75558952986358, 352.4530505100694)"><g transform="matrix(1, 0, 0, 1, 0, 0)">
		<path d="M98.3,644.8c-0.1,0-0.2,0.1-0.2,0.1C98.2,644.9,98.2,644.9,98.3,644.8 M187,624.3C187,624.4,187.1,624.4,187,624.3&#10;&#9;&#9;&#9;C187.1,624.4,187,624.4,187,624.3C187,624.4,187,624.4,187,624.3 M184.7,623c0.1,0.1,0.1,0.2,0.2,0.2&#10;&#9;&#9;&#9;C184.8,623.2,184.8,623.1,184.7,623 M138.6,609.7c0.1,0.1,0.1,0.2,0.2,0.3C138.7,609.9,138.7,609.8,138.6,609.7 M139.5,603.7&#10;&#9;&#9;&#9;c-1.2,0.2-2.2,0.9-3.2,1.6c-0.4,0.3-0.9,0.6-1.3,1c-1,0.7-1.9,1.4-2.8,2.2c-0.7,0.5-1.3,1.1-1.9,1.7c-0.9,0.9-1.9,1.8-2.8,2.7&#10;&#9;&#9;&#9;c-1.4,1.3-2.7,2.8-4,4.2c-0.5,0.5-0.9,1.1-1.4,1.6c-0.9,1-1.7,2-2.6,3c-1.3,1.5-2.5,3.1-3.8,4.6c-2.3,2.9-4.7,5.7-7.2,8.5&#10;&#9;&#9;&#9;c-2.8,3.1-5.4,6.3-8.6,8.9c-0.7,0.5-1.3,0.9-2.1,1.3c-1.1,0-2.1,0-3.2,0c-1,0-1.9,0-2.9,0c-1.9,0-3.9,0-5.8,0c-4.1,0-8.2,0-12.2,0&#10;&#9;&#9;&#9;c-2,0-3.6,1.6-3.6,3.6c0,2,1.6,3.6,3.6,3.6c4.1,0,8.3,0,12.4,0c2,0,4,0,6,0c0.9,0,1.9,0,2.8,0c1.6,0,3.3,0.1,4.9-0.3&#10;&#9;&#9;&#9;c0.2-0.1,0.3-0.1,0.5-0.2c0.5-0.2,0.9-0.4,1.4-0.6c0.5-0.2,1-0.6,1.4-0.9c1.1-0.8,2.2-1.7,3.2-2.6c1.8-1.6,3.4-3.4,5-5.2&#10;&#9;&#9;&#9;c1.5-1.6,2.9-3.3,4.4-4.9c1.4-1.5,2.7-3.2,4-4.8c1.2-1.5,2.4-2.9,3.6-4.4c1-1.3,2.1-2.5,3.2-3.8c0.7-0.8,1.3-1.6,2-2.3&#10;&#9;&#9;&#9;c0.6-0.6,1.2-1.2,1.8-1.9c1.3-1.3,2.6-2.7,3.9-4c0.6-0.5,1.1-1.1,1.7-1.6c0.7-0.6,1.5-1.2,2.2-1.9c0.3-0.2,0.5-0.4,0.8-0.6&#10;&#9;&#9;&#9;c0,0.8-0.1,1.6-0.2,2.4c-0.4,2.6-1,5.1-1.7,7.6c-0.7,2.6-1.5,5.3-2.4,7.8c-0.7,2.2-1.5,4.3-2.2,6.5c-0.5,1.5-1,3-1.4,4.5&#10;&#9;&#9;&#9;c-0.6,1.9-1.2,3.7-1.7,5.6c-1.1,4-2.1,8-3.2,12.1c-0.4,1.7-0.9,3.4-1.3,5c-0.2,1-0.5,1.9-0.7,2.9c-0.2,1.2-0.5,2.4-0.8,3.6&#10;&#9;&#9;&#9;c-0.1,0.6-0.2,1.3-0.2,2c0,0.8,0.3,1.7,0.6,2.4c0.2,0.6,0.5,1.1,0.9,1.6c0.6,0.6,1.7,1.2,2.5,1.1c0.7-0.1,1.4-0.1,2.1-0.3&#10;&#9;&#9;&#9;c0.7-0.1,1.3-0.3,2-0.6c1.1-0.5,2.1-1.2,3.1-2c2.1-1.7,4-3.5,5.8-5.4c1.8-1.9,3.7-3.8,5.6-5.7c2.9-3,5.8-6,8.7-9.1&#10;&#9;&#9;&#9;c2.5-2.6,4.9-5.3,7.3-8c0.5-0.6,1.1-1.1,1.6-1.6c1-1,2.1-2.1,3.1-3.1c1.3-1.2,2.6-2.4,3.9-3.6c2.4-2.2,4.9-4.4,7.4-6.4&#10;&#9;&#9;&#9;c2.5-2,4.9-4,7.4-6c0,0.7-0.1,1.4-0.2,2.1c-0.4,2.3-0.8,4.6-1.2,7c-0.3,2-0.6,4-0.8,5.9c-0.1,0.7-0.1,1.3-0.1,2&#10;&#9;&#9;&#9;c0,0.6,0.1,1.2,0.4,1.8c0.1,0.3,0.2,0.6,0.4,0.9c0.3,0.4,0.5,0.7,0.8,1c0.4,0.5,1.3,1,1.9,1.2c0.7,0.2,1.4,0.3,2.1,0.4&#10;&#9;&#9;&#9;c1.6,0.1,3.2-0.1,4.8-0.3c1.7-0.2,3.4-0.6,5.1-1c1-0.2,1.9-0.5,2.9-0.7c1.9-0.4,3.8-0.9,5.8-1.2c2-0.3,4.1-0.6,6.1-0.9&#10;&#9;&#9;&#9;c4-0.6,8-1.2,11.9-1.8c1.9-0.3,3.8-0.5,5.8-0.8c3.8-0.4,7.5-0.8,11.3-1.2c3.9-0.4,7.9-1,11.8-1.6c3.6-0.5,7.3-0.9,10.9-1.1&#10;&#9;&#9;&#9;c4-0.2,7.9-0.5,11.9-0.7c2-0.1,4-0.2,6.1-0.3c2-0.1,4.1-0.2,6.1-0.2c3.7-0.1,7.3-0.5,11-0.6c12.3-0.3,24.6-0.3,36.9-0.3&#10;&#9;&#9;&#9;c2,0,3.6-1.6,3.6-3.6s-1.6-3.6-3.6-3.6c-8.7,0-17.4,0-26.2,0.1c-3.7,0-7.4,0.1-11,0.2c-3.9,0.2-7.7,0.5-11.6,0.6&#10;&#9;&#9;&#9;c-3.6,0.1-7.3,0.3-10.9,0.5c-3.2,0.1-6.4,0.4-9.7,0.6c-3.1,0.2-6.3,0.4-9.4,0.8c-3.6,0.5-7.3,1-10.9,1.5&#10;&#9;&#9;&#9;c-3.6,0.5-7.2,0.9-10.8,1.3c-4.1,0.4-8.3,0.8-12.4,1.5c-3.8,0.6-7.6,1.2-11.4,1.8c-2,0.3-4,0.6-6,0.9c-1,0.2-2,0.3-2.9,0.5&#10;&#9;&#9;&#9;c-1.1,0.2-2.2,0.5-3.3,0.8c-0.9,0.2-1.9,0.4-2.8,0.7c-1.8,0.5-3.7,0.9-5.5,1.2c-0.6,0.1-1.2,0.1-1.8,0.1c0.1-0.6,0.1-1.2,0.2-1.8&#10;&#9;&#9;&#9;c0.2-1.6,0.4-3.2,0.7-4.7c0.2-1.3,0.5-2.6,0.7-3.8c0.2-1.4,0.4-2.7,0.5-4.1c0.1-1.5,0-3.1-0.4-4.6c-0.1-0.6-0.5-1.3-0.8-1.9&#10;&#9;&#9;&#9;c-0.1-0.1-0.2-0.3-0.3-0.4c-0.2-0.4-0.5-0.8-0.9-1c-0.2-0.2-0.5-0.4-0.7-0.6c-0.4-0.2-0.8-0.3-1.2-0.5c-0.5-0.2-1.2-0.2-1.8-0.1&#10;&#9;&#9;&#9;c-2.4,0.2-4.2,1.9-6,3.3c-1.5,1.2-2.9,2.4-4.4,3.6c-3,2.4-6,4.7-8.8,7.3c-0.9,0.9-1.9,1.7-2.8,2.6c-0.6,0.6-1.3,1.1-1.9,1.7&#10;&#9;&#9;&#9;c-1.6,1.6-3.3,3.3-4.9,4.9c-2,2-3.9,4.2-5.8,6.3c-1.9,2.1-3.8,4.1-5.7,6.1c-1.8,1.9-3.7,3.9-5.6,5.8c-1,1.1-2.1,2.1-3.1,3.2&#10;&#9;&#9;&#9;c-1.2,1.2-2.3,2.4-3.5,3.7c-0.8,0.8-1.7,1.6-2.5,2.4c0.1-0.6,0.3-1.1,0.4-1.7c0.4-1.8,0.9-3.5,1.3-5.2c1.1-4,2.1-8,3.2-12&#10;&#9;&#9;&#9;c0.5-1.8,1.1-3.6,1.6-5.5c0.5-1.5,0.9-3,1.4-4.5c2.5-7.2,5.1-14.5,6.3-22.1c0.2-1.4,0.4-2.8,0.4-4.3c0.1-1.3,0.1-2.5-0.1-3.8&#10;&#9;&#9;&#9;c-0.1-0.7-0.3-1.2-0.6-1.9c-0.2-0.5-0.6-1.2-1-1.6c-0.5-0.4-1-0.8-1.5-1.2c-0.4-0.2-0.8-0.4-1.3-0.5c-0.3-0.1-0.6-0.1-1-0.1&#10;&#9;&#9;&#9;C140.2,603.6,139.9,603.6,139.5,603.7" style="fill: rgb(244, 244, 244); opacity: 1;"/>
		<path d="M345.2,633c-0.1-1.4-0.2-2.7-0.2-4.1c-0.1-2.5-0.1-5-0.1-7.5c0.4,0.3,0.9,0.5,1.3,0.7c1.4,0.7,2.7,1.5,4.1,2.1&#10;&#9;&#9;&#9;c0.9,0.4,1.9,0.9,2.8,1.3c-0.9,1.5-2,2.9-3,4.3c-0.8,1.1-1.6,2.1-2.4,3.2c-0.7,1-1.4,2-2.1,3c0-0.2-0.1-0.4-0.1-0.6&#10;&#9;&#9;&#9;C345.4,634.7,345.2,633.8,345.2,633 M339.3,610.6c-0.9,0.2-1.7,0.8-2.1,1.7c-0.5,0.8-0.6,1.8-0.4,2.8c0.2,0.8,0.7,1.4,1.3,1.9&#10;&#9;&#9;&#9;c-0.3,0.5-0.4,1-0.4,1.6c0,4.7,0,9.5,0.3,14.2c0.1,2,0.4,4.1,0.8,6.1c0.2,0.9,0.3,1.8,0.5,2.7c0.4,1.9,0.8,4.2,2.7,5.3&#10;&#9;&#9;&#9;c0.3,0.1,0.6,0.2,0.9,0.4c0.6,0.2,1.3,0.2,1.9,0c0.8-0.1,1.3-0.5,1.9-1c0.4-0.4,0.8-0.8,1.2-1.2c0.8-0.9,1.5-1.9,2.3-2.9&#10;&#9;&#9;&#9;c0.5-0.6,0.9-1.3,1.3-2c0.7-0.9,1.3-1.9,2-2.8c1.1-1.5,2.2-3,3.3-4.5c1.1-1.4,2.1-2.8,3-4.4c0.7-1.2,1-2.5,1.1-3.9&#10;&#9;&#9;&#9;c0-0.5-0.1-1.1-0.3-1.6c-0.2-0.6-0.5-1.1-0.9-1.6c-0.2-0.2-0.4-0.4-0.6-0.6c-1.4-1.2-3.2-1.9-4.8-2.7c-1.4-0.7-2.8-1.4-4.2-2.2&#10;&#9;&#9;&#9;c-2.8-1.5-5.3-3.3-7.9-5.1c-0.5-0.3-1.1-0.5-1.8-0.5C340,610.4,339.6,610.5,339.3,610.6" style="fill: rgb(244, 244, 244); opacity: 1;"/>
	</g></g><g transform="matrix(0.20075673177065295, 0.006203277847079123, -0.006203277847079123, 0.20075673177065295, 48.94436916623454, -74.54280136858762)"><g transform="matrix(1, 0, 0, 1, 0, 0)">
		<linearGradient id="SVGID_5_" gradientUnits="userSpaceOnUse" x1="568.0725" y1="593.8664" x2="890.9706" y2="593.8664">
			<stop offset="0" style="stop-color:#9F0B10"/>
			<stop offset="1" style="stop-color:#ED1C24"/>
		</linearGradient>
		<path class="st4" d="M882.3,588.5c0.6,17.2-8.6,29.1-26.9,24.6c-24.7-6-46.3-25.2-65.7-40.5c-23.9-18.9-50.2-34.5-77.9-47.1&#10;&#9;&#9;&#9;c-34.6-15.7-77.4-26.9-114.2-12.3c-30.4,12-39.3,48.6-29.9,77.4C577.2,620,609,635,638,634.5c24-0.4,53.8-18.9,53.5-45.4&#10;&#9;&#9;&#9;c-0.3-22.9-28.6-32.4-47.1-33.9c-26.1-2.1-54.3,10.4-67.4,33.6c-12.8,22.6-19.4,58.2-3,80.6c11.2,15.3,32.8,13.5,48.1,7&#10;&#9;&#9;&#9;c23.9-10.1,32.8-34.1,32.8-58.3c0.1-25.5-19.8-36.7-42.7-35.9c-7.3,0.2-9.7,9.8-1.1,9.5c49-1.6,35.2,75-5.7,80.1&#10;&#9;&#9;&#9;c-20,2.5-27.1-18.4-27.8-34.4c-1-23.1,7-47.6,25.4-62.2c18.9-14.9,75.2-17.1,75.6,17.3c0.2,19.8-23,31.2-39.5,32.5&#10;&#9;&#9;&#9;c-21.3,1.7-41.8-10.5-53.6-27.5c-12-17.3-11.1-42-1.5-60c11.9-22.5,42.4-22.9,64.1-20.3c63.9,7.7,112.1,51.3,162.9,86&#10;&#9;&#9;&#9;c19.2,13.1,49.6,30.4,71.9,14.3c8.9-6.4,12.8-19.4,12.4-30C895,580.8,882.1,582.7,882.3,588.5L882.3,588.5z" style="fill: rgb(244, 244, 244); opacity: 1;"/>
	</g></g><g transform="matrix(-0.23758650398563386, -0.0008843100835730462, 0.0008843100835730462, -0.23758650398563386, 486.0296626387459, 199.31853158747802)"><g transform="matrix(1, 0, 0, 1, 0, 0)">
		<linearGradient id="gradient-1" gradientUnits="userSpaceOnUse" x1="568.0725" y1="593.8664" x2="890.9706" y2="593.8664">
			<stop offset="0" style="stop-color:#9F0B10"/>
			<stop offset="1" style="stop-color:#ED1C24"/>
		</linearGradient>
		<path class="st4" d="M882.3,588.5c0.6,17.2-8.6,29.1-26.9,24.6c-24.7-6-46.3-25.2-65.7-40.5c-23.9-18.9-50.2-34.5-77.9-47.1&#10;&#9;&#9;&#9;c-34.6-15.7-77.4-26.9-114.2-12.3c-30.4,12-39.3,48.6-29.9,77.4C577.2,620,609,635,638,634.5c24-0.4,53.8-18.9,53.5-45.4&#10;&#9;&#9;&#9;c-0.3-22.9-28.6-32.4-47.1-33.9c-26.1-2.1-54.3,10.4-67.4,33.6c-12.8,22.6-19.4,58.2-3,80.6c11.2,15.3,32.8,13.5,48.1,7&#10;&#9;&#9;&#9;c23.9-10.1,32.8-34.1,32.8-58.3c0.1-25.5-19.8-36.7-42.7-35.9c-7.3,0.2-9.7,9.8-1.1,9.5c49-1.6,35.2,75-5.7,80.1&#10;&#9;&#9;&#9;c-20,2.5-27.1-18.4-27.8-34.4c-1-23.1,7-47.6,25.4-62.2c18.9-14.9,75.2-17.1,75.6,17.3c0.2,19.8-23,31.2-39.5,32.5&#10;&#9;&#9;&#9;c-21.3,1.7-41.8-10.5-53.6-27.5c-12-17.3-11.1-42-1.5-60c11.9-22.5,42.4-22.9,64.1-20.3c63.9,7.7,112.1,51.3,162.9,86&#10;&#9;&#9;&#9;c19.2,13.1,49.6,30.4,71.9,14.3c8.9-6.4,12.8-19.4,12.4-30C895,580.8,882.1,582.7,882.3,588.5L882.3,588.5z" style="fill: rgb(244, 244, 244); opacity: 1;"/>
	</g></g><g transform="matrix(0.4845860197229341, 0.01497345532777306, -0.01497345532777306, 0.4845860197229341, 13.705206666717572, -244.4919229620115)"><g transform="matrix(1, 0, 0, 1, 0, 0)">
	<path class="st1" d="M507.7,548.5c-5.3-6.6-12.3-11.5-19.4-14.4c-0.9-0.4-1.8-0.7-2.7-1l-1.3-0.5l-0.8-0.3l-0.6-0.2l-1.2-0.3&#10;&#9;&#9;l-1.5-0.4c-1-0.2-1.9-0.4-2.8-0.5c-3.7-0.5-7.3-0.6-10.7-0.2c-6.8,0.7-12.7,3.1-17.3,5.7c-4.6,2.7-7.9,6-10.1,9&#10;&#9;&#9;c-2.3,3-3.5,5.7-4.2,7.5c-0.4,0.9-0.6,1.7-0.7,2.2c0,0.2-0.1,0.3-0.1,0.4c-1,2.2-1.6,4.6-1.6,7.1c-0.2,9.9,7.6,18,17.5,18.3&#10;&#9;&#9;c9.9,0.2,18-7.6,18.3-17.5c0.2-9.4-6.8-17.2-16-18.2c0.5-0.2,0.9-0.4,1.4-0.7c3.9-1.8,8.6-3.2,13.7-3.3c5.1-0.1,10.5,1.1,15.8,3.8&#10;&#9;&#9;c5.4,2.6,10.3,6.4,14.3,11.4c2,2.5,3.7,5.3,5.2,8.3c1.4,3,2.6,6.2,3.5,9.6c1.7,6.7,2.1,14,1.3,21.2c-0.4,3.6-1.1,7.2-2.1,10.7&#10;&#9;&#9;c-1,3.6-2.2,6.8-3.9,10c-1.6,3.2-3.5,6.2-5.6,9c-2.1,2.8-4.5,5.4-7.1,7.7c-5.1,4.7-10.8,8.5-16.7,11.4c-5.8,2.9-11.7,4.9-17.4,6.2&#10;&#9;&#9;c-5.6,1.3-10.9,1.9-15.7,2.1c-4.7,0.2-8.9-0.1-12.3-0.4c-3.4-0.4-6.1-0.9-7.9-1.3c-1.8-0.4-2.8-0.6-2.8-0.6s0.9,0.4,2.6,1.1&#10;&#9;&#9;c1.7,0.7,4.3,1.6,7.7,2.6c3.4,0.9,7.6,1.8,12.5,2.2c4.9,0.4,10.6,0.5,16.7-0.2c6.1-0.8,12.7-2.1,19.4-4.8c3.3-1.3,6.7-2.8,10-4.7&#10;&#9;&#9;c1.7-0.9,3.3-1.9,4.9-3c1.6-1.1,3.2-2.2,4.7-3.5c6.2-4.9,11.9-11.2,16.1-18.6c2.1-3.6,3.9-7.7,5.2-11.7c1.4-4.1,2.4-8.3,3.1-12.5&#10;&#9;&#9;c1.4-8.5,1.1-17.3-0.8-25.8C516.8,563.1,513.1,555,507.7,548.5z" style="fill: rgb(23, 92, 99); opacity: 1;"/>
	<path d="M 549.6 577.200012 A 11.1 11.1 0 0 1 538.5 588.300013 A 11.1 11.1 0 0 1 527.4 577.200012 A 11.1 11.1 0 0 1 538.5 566.100012 A 11.1 11.1 0 0 1 549.6 577.200012 Z" class="st1" style="fill: rgb(23, 92, 99); opacity: 1;"/>
	<path d="M 549.6 613.400024 A 11.1 11.1 0 0 1 538.5 624.500025 A 11.1 11.1 0 0 1 527.4 613.400024 A 11.1 11.1 0 0 1 538.5 602.300024 A 11.1 11.1 0 0 1 549.6 613.400024 Z" class="st1" style="fill: rgb(23, 92, 99); opacity: 1;"/>
</g></g></svg>