<svg xmlns="http://www.w3.org/2000/svg" viewBox="0 0 623.3 408.53"><defs><style>.cls-1{fill:#2696a1;}</style></defs><title>Asset 1</title><g id="Layer_2" data-name="Layer 2"><g id="Draw_Layer" data-name="Draw Layer"><path class="cls-1" d="M59.23,3.84q-4.07,20.7-7.07,41.6c-1.07,7.57-1.91,15.2-2.49,22.83a213.66,213.66,0,0,0-.36,24.25A260.5,260.5,0,0,0,51.81,119c1.11,8,2.81,15.87,4.59,23.74,1.38,6.13,3,12.2,4.5,18.29,1.34,5.32,2.59,10.68,4,16,2.7,10,5.46,20,8.07,30.08l4.54,17.47q-5.75,5-11.74,9.7a277.3,277.3,0,0,1-23.19,15.88c-4.37,2.68-8.8,5.21-13.25,7.75-2.73,1.56-5.47,3.1-8.24,4.59l-5.58,3c-1.3.7-2.67,1.28-4,1.92a26.65,26.65,0,0,0-7.78,6.07,13,13,0,0,0-3.74,9,12.75,12.75,0,0,0,1.74,6.45,12.88,12.88,0,0,0,4.58,4.58,24,24,0,0,0,3.05,1.9,24.82,24.82,0,0,0,4.77,1.76,44.91,44.91,0,0,0,5.18.76c2,.24,4.06.42,6.09.55l10,.67,14.54,1c9.4.65,18.77,1.58,28.15,2.46l13,2.17a14.94,14.94,0,0,0,1.54,2.5,12.93,12.93,0,0,0,14.59,5.94,13.21,13.21,0,0,0,6.32-4l2,.49q8.41,2,16.68,4.6c10.57,3.28,20.93,7.21,31.14,11.46,6.95,3,13.79,6.17,20.56,9.52,3.48,1.72,7,3.43,10.33,5.34,6.42,3.61,12.8,7.29,19.27,10.8,9.48,5.16,18.8,10.57,28.33,15.65,4.66,2.48,9.2,5.2,13.83,7.74q6.54,3.59,13.05,7.25c9.75,5.45,19.52,10.85,29.46,16,7.21,3.71,14.53,7.24,22,10.5,0,0,0,0,0,0-8.29-7.89-16.53-15.84-25-23.58-7.57-6.95-15.09-14-23-20.52-9-7.42-18.2-14.65-27.73-21.44q-4.74-3.38-9.54-6.68c-1.27-.87-2.52-1.79-3.84-2.6-5.42-3.34-10.93-6.54-16.43-9.73l-8.39-4.86c-3.75-2.17-7.64-4.1-11.5-6.05A415.63,415.63,0,0,0,149,293.24q-11.29-4.1-22.89-7.2c-3.72-1-7.46-1.9-11.21-2.77l-.32-.07-.44-9.87c-.23-5.29-.29-10.59-.42-15.88-.25-10.33-.39-20.66-.54-31l6.1-6.18,13.4-13.55c2-2,3.83-4.19,5.71-6.3q4-4.54,7.9-9.22c5.3-6.4,10.54-12.95,15.38-19.7a84.27,84.27,0,0,0,5.53-9,72.93,72.93,0,0,0,5.77-13,36.92,36.92,0,0,0,1.24-7.76,31.69,31.69,0,0,0-.73-7.25,28.07,28.07,0,0,0-2.4-6.87,20.5,20.5,0,0,0-4.47-6.34,20.89,20.89,0,0,0-6.09-4.14,29.2,29.2,0,0,0-4.66-1.8,27.27,27.27,0,0,0-5.14-.62,29.82,29.82,0,0,0-7.52.9,49.16,49.16,0,0,0-5.87,1.84,122.08,122.08,0,0,0-12.25,5.1,68.27,68.27,0,0,0-10.36,6.07,55.92,55.92,0,0,0-9.66,8.52,55.13,55.13,0,0,0-7.7,11.13,76.47,76.47,0,0,0-7.07,22q-.83-3.52-1.63-7l-4.88-21.54c-.82-3.61-1.54-7.23-2.27-10.85-1.59-7.89-3.24-15.76-4.8-23.65-3.1-15.71-6-31.44-8.29-47.29-1.15-8.05-2.29-16.11-3.54-24.14q-2.48-16-5.63-31.89h0Zm87.85,137.92c-.24.94-.54,1.87-.87,2.79a94,94,0,0,1-5.7,10.5c-2.5,4-5.41,7.74-8.29,11.47l2.08-2.7-4.65,6q-5.07,6.48-10.44,12.7c-1.88,2.19-3.75,4.39-5.74,6.47.2-3.59.49-7.17.92-10.74a77.1,77.1,0,0,1,4-15.85,44,44,0,0,1,3.84-6.65,43,43,0,0,1,4.8-4.87,63.23,63.23,0,0,1,10.7-6,72.19,72.19,0,0,1,9.37-3.12ZM61.46,267.51c6.59-4.11,12.93-8.62,19.13-13.31l3.23-2.47c1.47,6.86,2.83,13.75,4,20.68.06,1.93.15,3.85.23,5.78l-.93-.16c-5.27-.93-10.54-1.48-15.85-2-5-.52-10.06-1.12-15.1-1.49l-5.69-.41c3.7-2.15,7.38-4.34,11-6.6Z"/><path class="cls-1" d="M229.61,212.53a13.46,13.46,0,0,0-6.1,1.6c-3,1.73-4.44,4.56-5.59,7.65a13.68,13.68,0,0,0-.45,6.24q-.83.2-1.69.35a93.8,93.8,0,0,1-10,.31,109.31,109.31,0,0,1-11.21-.61,50.65,50.65,0,0,1,7.52-4.12c4.81-1.93,9.82-3.28,14.76-4.8a0,0,0,0,0,0,0c-7.07-1.55-14.27-3.12-21.55-2.32a41,41,0,0,0-10.48,2.56,46.26,46.26,0,0,0-4.87,2.26c-2.54,1.34-3.82,3.7-4.79,6.26a10.22,10.22,0,0,0,.12,6.47,14.45,14.45,0,0,0,4,5.73,24,24,0,0,0,4.92,3.45,50.92,50.92,0,0,0,6.7,2.66,60.74,60.74,0,0,0,11.25,2.5,70.08,70.08,0,0,0,13.53.95,49.61,49.61,0,0,0,7.47-1,30.19,30.19,0,0,0,6.81-2.63l.21-.1a43,43,0,0,0,4.36,2,30.29,30.29,0,0,0,12,1.79c8.16-.34,15.6-4.58,22.33-8.9,0,0,0,0,0,0a84.57,84.57,0,0,1-16.49.56,23.54,23.54,0,0,1-11.33-4.7q-.49-.42-1-.85a27.52,27.52,0,0,0,1.41-3.63,22.2,22.2,0,0,0,.62-4.19,16,16,0,0,0-.44-4.39,19.62,19.62,0,0,0-1.45-4.11,13.24,13.24,0,0,0-5-5.45,12.07,12.07,0,0,0-5.25-1.47Z"/><path class="cls-1" d="M340.3,168.28a18.6,18.6,0,0,0-9.39,7.42,22.56,22.56,0,0,0-1.53,2.47,28,28,0,0,0-5-3.2,30.19,30.19,0,0,0-20.84-2.83,24.34,24.34,0,0,0-5.28,1.49,53.22,53.22,0,0,0-11.22,5.77,45.5,45.5,0,0,0-15.42,18,49.49,49.49,0,0,0-3.73,11.23c-.34,1.69-.6,3.4-.79,5.11-2.51-4.69-5.15-9.31-7.79-13.92,0,0,0,0,0,0,.84,6.68,1.73,13.35,2.69,20q.56,4.48,1.17,8.95l-.14-1c.55,4.43,1.18,8.86,1.78,13.28l-.2-1.52c.15,1.1.31,2.19.47,3.28a15.9,15.9,0,0,0,.51,3.12,8.69,8.69,0,0,0,5.68,5.78,9,9,0,0,0,7.14-.7,10.29,10.29,0,0,0,4.3-5.59,18.85,18.85,0,0,0,.75-3.26c.26-1.45.66-2.87.95-4.32.34-1.79.64-3.58,1-5.36,1.32-6.68,2.35-13.38,4.73-19.77a39.75,39.75,0,0,1,3.38-5.79,39.86,39.86,0,0,1,4.45-4.45,42.82,42.82,0,0,1,6.12-3.45,33.08,33.08,0,0,1,4.58-1.34c.62,0,1.23,0,1.85,0s1.46.37,2.18.6q.77.41,1.51.87a29.61,29.61,0,0,1,2.33,2.37,75.48,75.48,0,0,1,5,8.47l0,0a21.8,21.8,0,0,1,1,3.23v0a13.23,13.23,0,0,0,3.57,7.1c1.76,1.76,3.34,2.3,5.6,3.2,2.8,1.12,6.65.27,9.15-1.2a11.93,11.93,0,0,0,5.88-10.26c0-4-.39-7.93-.75-11.89-.44-4.75-1.24-9.55-.9-14.32a20.71,20.71,0,0,1,.68-2.53c.2-.39.41-.77.63-1.15l.33.11c.44.23.86.47,1.27.74a18.77,18.77,0,0,1,1.63,1.72,89,89,0,0,1,8.6,15.68q2,4.42,4,8.87c.5,1.18,1,2.36,1.48,3.54a0,0,0,0,0,0,0c-.16-4.86-.5-9.69-.91-14.53a83.77,83.77,0,0,0-2-13.56,43.11,43.11,0,0,0-3-8.45,18,18,0,0,0-6.93-7,12.06,12.06,0,0,0-6.28-1.71,14.23,14.23,0,0,0-4.42.72Zm7,13.47-.12,0,.12,0Zm-.65.28.12,0-.12,0Zm-.57,0h0l-.25.11.25-.11ZM321.67,210.2l.74,1.75h0l-.74-1.76Zm.77,1.81.38.91-.38-.9Z"/><path class="cls-1" d="M402.07,152.25c-5,6.09-9.21,12.93-11.11,20.66a39.41,39.41,0,0,0-.73,5.5,41.72,41.72,0,0,0-.17,4.69,59.34,59.34,0,0,0,1.25,11h0c.62-1.42,1.24-2.83,1.82-4.27a153.37,153.37,0,0,0,5.69-15.94,87.35,87.35,0,0,0,1.79-8.8,97.62,97.62,0,0,0,1.46-12.88h0Z"/><path class="cls-1" d="M389.38,138a127,127,0,0,0-3.79,19.85,71.12,71.12,0,0,0-.47,13.08c.81,10.49,3.34,21.37,8.64,30.54,0,0,0,0,0,0,.66-10.29,2.67-20.49,2.44-30.83-.25-11.1-3-22.26-6.82-32.64h0Z"/><path class="cls-1" d="M383,153.84c-1.12,8.94-1.3,18.29.85,27.11,2,8.21,5.7,16,9.61,23.47a0,0,0,0,0,0,0,83.84,83.84,0,0,0-.69-25.67,67.29,67.29,0,0,0-3-10.11,102.38,102.38,0,0,0-6.73-14.8h0Z"/><path class="cls-1" d="M354.42,71.63a33.57,33.57,0,0,0-3.95.41,10.51,10.51,0,0,0-5.5,2.2c-1.89,1.56.13,4.79,2.36,4.06a34.9,34.9,0,0,0,4.44-1.82c.66-.24,1.31-.48,2-.75l0,0c.91-.35,1.8-.73,2.68-1.12,1.79-.75,3.55-1.56,5.3-2.41a0,0,0,0,0,0,0,38.1,38.1,0,0,0-6.35-.57Z"/><path class="cls-1" d="M345,37.78a64,64,0,0,0-10.56,2.61,52.91,52.91,0,0,0-6.52,2.84,37.92,37.92,0,0,0-6.35,4.19c-3.63,2.81-5.91,6.7-7.59,10.89a24.81,24.81,0,0,0-1.37,6.63,17.29,17.29,0,0,0,.43,4.32,21.07,21.07,0,0,0,1.7,4.8,21.51,21.51,0,0,0,8.87,9.55,23.64,23.64,0,0,0,13.67,2.84,46.87,46.87,0,0,0,12-3A68.06,68.06,0,0,0,361,78.15,35,35,0,0,0,367.81,73a11.15,11.15,0,0,0,2.51-3.8,13.49,13.49,0,0,0,.68-3.77l0,.17a6,6,0,0,0,0-1.09q.39-.32.76-.67a19.92,19.92,0,0,0,3.48-4.42A14.35,14.35,0,0,0,377,52.89a15.3,15.3,0,0,0-.39-3.59A15.08,15.08,0,0,0,375.38,46c-1.14-2.45-3.09-4-5.19-5.56a20.1,20.1,0,0,0-5.35-2.53,29.56,29.56,0,0,0-6.25-1.07,25.06,25.06,0,0,0-3.08-.18A67.76,67.76,0,0,0,345,37.78Zm16.82,15.85v0Zm-.28,1.57a18.15,18.15,0,0,1-1,1.71,50.58,50.58,0,0,1-5.28,5,20.3,20.3,0,0,1-2.74,1.6,13.56,13.56,0,0,1-2.09.62H350a7.16,7.16,0,0,1-.95-.27,26,26,0,0,1-4.6-2.67l-1.26-1,.23-.1a79.66,79.66,0,0,1,15.34-4.83,24.93,24.93,0,0,1,2.75-.07Zm1,.25h0l.19.26-.2-.26Zm-21.38,5.74a26,26,0,0,0,2.16,3.89,29.24,29.24,0,0,0,2.19,2.82l-1.11.07a52.78,52.78,0,0,1-6.35.21,22.32,22.32,0,0,1-2.43-.6l-.7-.43-.45-.45-.17-.31q.31-.55.65-1.09c.32-.34.66-.67,1-1a46.49,46.49,0,0,1,5.21-3.13Zm8.15,2.9.49.07-.49-.07Z"/><path class="cls-1" d="M438.54,0C437.13,7.17,436,14.37,435,21.61a156.84,156.84,0,0,0-.3,38.61,283.21,283.21,0,0,0,9,46.52c3,10.46,6.44,20.8,10,31.08,1.75,5,3.56,10,5.28,15,1.91,5.58,3.88,11.15,5.85,16.71,1.32,3.75,2.64,7.5,4.07,11.21a73.29,73.29,0,0,0,6.05,13s0,0,0,0c-.06-.43-.13-.87-.19-1.3a.38.38,0,0,1,0,0,128.05,128.05,0,0,1-.66-15.34c-.05-5.41-.11-10.83-.3-16.24-.19-5.17-.3-10.37-.75-15.52q-.8-9.28-1.89-18.54c-1.25-10.48-2.82-21-5-31.3-4.25-19.79-11.53-38.76-17.3-58.11C445.18,25,442.06,12.47,438.57,0h0Zm36.29,192.41v0Z"/><path class="cls-1" d="M564.25,43.54a13.39,13.39,0,0,0-3.75,9.05c-.06.8-.08,1.61-.17,2.41l-.11.82c-1.4,8.55-2.59,17.37-5.69,25.49a32.17,32.17,0,0,1-2.36,4.25,23.77,23.77,0,0,1-1.69,1.74q-.52.32-1,.59c-.64.21-1.27.39-1.92.54a29.83,29.83,0,0,1-4.28-.09,38.33,38.33,0,0,1-5.84-1.55,17.29,17.29,0,0,1-1.65-.94c-.36-.32-.7-.66-1-1s-.52-.85-.76-1.29a13.3,13.3,0,0,1-.36-1.31,20.21,20.21,0,0,1,0-2.63,90,90,0,0,1,4.14-13.51c1.3-3.53,2.57-7.06,3.88-10.59a0,0,0,0,0,0,0c-6.28,6.13-12.5,12.42-17.37,19.77a20.34,20.34,0,0,0-2.27,5.3,15.67,15.67,0,0,0-.56,5.68,19.59,19.59,0,0,0,1.71,6.54,22.91,22.91,0,0,0,3.24,5,22.5,22.5,0,0,0,4.69,4,31.45,31.45,0,0,0,4.54,2.63A34.82,34.82,0,0,0,550,108.1a29.17,29.17,0,0,0,6.73-.83,24.26,24.26,0,0,0,6.22-2.51,31.76,31.76,0,0,0,5.46-4.07,18.15,18.15,0,0,0,1.49-1.43,50,50,0,0,0,9.44,14.34,35.56,35.56,0,0,0,12.15,8.11,45.52,45.52,0,0,0,14.42,3c5.8.33,11.75.62,17.43-.79,0,0,0,0,0,0-4.93-.73-9.42-2.68-14-4.5l.66.28-2.82-1.19A50.82,50.82,0,0,1,597.5,113a32.11,32.11,0,0,1-4.43-4.49,35.9,35.9,0,0,1-3.23-5.44,57.56,57.56,0,0,1-3-11.71c-1.52-12.87-.93-25.8-.74-38.74a12.81,12.81,0,0,0-21.87-9.05Z"/><path class="cls-1" d="M563.6,20.95A79.13,79.13,0,0,0,551,32.6c-6,7-9.92,15.66-12.55,24.5,0,0,0,0,0,0,7.15-5.41,13.8-11.83,18.27-19.67A77.62,77.62,0,0,0,563.62,21a0,0,0,0,0,0,0Z"/></g></g></svg>